<?xml version="1.0" encoding="UTF-8"?>
<svg id="Layer_1" data-name="Layer 1" xmlns="http://www.w3.org/2000/svg" version="1.1" xmlns:xlink="http://www.w3.org/1999/xlink" viewBox="0 0 221.9 222">
  <defs>
    <style>
      .cls-1 {
        fill: #fafaf5;
      }

      .cls-1, .cls-2, .cls-3, .cls-4, .cls-5, .cls-6, .cls-7, .cls-8, .cls-9, .cls-10, .cls-11, .cls-12, .cls-13, .cls-14, .cls-15, .cls-16, .cls-17, .cls-18, .cls-19, .cls-20, .cls-21, .cls-22, .cls-23, .cls-24, .cls-25, .cls-26, .cls-27, .cls-28, .cls-29, .cls-30, .cls-31, .cls-32, .cls-33, .cls-34, .cls-35, .cls-36, .cls-37, .cls-38, .cls-39, .cls-40, .cls-41, .cls-42, .cls-43, .cls-44, .cls-45, .cls-46, .cls-47, .cls-48, .cls-49, .cls-50, .cls-51, .cls-52, .cls-53, .cls-54, .cls-55, .cls-56, .cls-57, .cls-58, .cls-59, .cls-60, .cls-61, .cls-62, .cls-63, .cls-64, .cls-65, .cls-66, .cls-67, .cls-68, .cls-69, .cls-70, .cls-71, .cls-72, .cls-73, .cls-74, .cls-75, .cls-76, .cls-77, .cls-78, .cls-79, .cls-80, .cls-81, .cls-82, .cls-83, .cls-84, .cls-85, .cls-86, .cls-87, .cls-88, .cls-89, .cls-90, .cls-91, .cls-92, .cls-93, .cls-94, .cls-95, .cls-96, .cls-97, .cls-98, .cls-99, .cls-100, .cls-101, .cls-102, .cls-103, .cls-104, .cls-105, .cls-106, .cls-107, .cls-108, .cls-109, .cls-110, .cls-111, .cls-112, .cls-113, .cls-114, .cls-115, .cls-116, .cls-117, .cls-118, .cls-119 {
        stroke-width: 0px;
      }

      .cls-2 {
        fill: #020202;
      }

      .cls-3 {
        fill: #5f4934;
      }

      .cls-4 {
        fill: #7f5952;
      }

      .cls-5 {
        fill: #715a4b;
      }

      .cls-6 {
        fill: #eaeaea;
      }

      .cls-7 {
        fill: #bfb799;
      }

      .cls-8 {
        fill: #fcfcfb;
      }

      .cls-9 {
        fill: #c49a8d;
      }

      .cls-10 {
        fill: #000;
      }

      .cls-11 {
        fill: #6d7372;
      }

      .cls-12 {
        fill: #b7cad7;
      }

      .cls-13 {
        fill: #fcfcfc;
      }

      .cls-14 {
        fill: #d6d6d2;
      }

      .cls-15 {
        fill: #38241b;
      }

      .cls-16 {
        fill: #322118;
      }

      .cls-17 {
        fill: #966755;
      }

      .cls-18 {
        fill: #b58977;
      }

      .cls-19 {
        fill: #3e230f;
      }

      .cls-20 {
        fill: #dbd8d7;
      }

      .cls-21 {
        fill: #b7b9b7;
      }

      .cls-22 {
        fill: #c7cac2;
      }

      .cls-23 {
        fill: #dcdcdc;
      }

      .cls-24 {
        fill: #a88771;
      }

      .cls-25 {
        fill: #552b1b;
      }

      .cls-26 {
        fill: #a37861;
      }

      .cls-27 {
        fill: #a3a096;
      }

      .cls-28 {
        fill: #452f24;
      }

      .cls-29 {
        fill: #191a19;
      }

      .cls-30 {
        fill: #030304;
      }

      .cls-31 {
        fill: #251314;
      }

      .cls-32 {
        fill: #996a6a;
      }

      .cls-33 {
        fill: #b59d91;
      }

      .cls-34 {
        fill: #996e5c;
      }

      .cls-35 {
        fill: #c7a495;
      }

      .cls-36 {
        fill: #5f5352;
      }

      .cls-37 {
        fill: #cbc8c5;
      }

      .cls-38 {
        fill: #fbfdfd;
      }

      .cls-39 {
        fill: #3d2e22;
      }

      .cls-40 {
        fill: #7e5e4b;
      }

      .cls-41 {
        fill: #c7d5dd;
      }

      .cls-42 {
        fill: none;
      }

      .cls-43 {
        fill: #3e3118;
      }

      .cls-44 {
        fill: #977062;
      }

      .cls-45 {
        fill: #c5cbc6;
      }

      .cls-46 {
        fill: #4c3b35;
      }

      .cls-47 {
        fill: #d4d7d5;
      }

      .cls-48 {
        fill: #ab8e7d;
      }

      .cls-120 {
        clip-path: url(#clippath-1);
      }

      .cls-49 {
        fill: #3b2a24;
      }

      .cls-50 {
        fill: #c4b69d;
      }

      .cls-51 {
        fill: #1b191c;
      }

      .cls-52 {
        fill: #0c0d0d;
      }

      .cls-53 {
        fill: #41382a;
      }

      .cls-54 {
        fill: #080808;
      }

      .cls-55 {
        fill: #dcb6a5;
      }

      .cls-56 {
        fill: #fdfdfd;
      }

      .cls-57 {
        fill: #694c31;
      }

      .cls-58 {
        fill: #ddd;
      }

      .cls-59 {
        fill: #c2b9a6;
      }

      .cls-60 {
        fill: #191918;
      }

      .cls-61 {
        fill: #c6ad93;
      }

      .cls-62 {
        fill: #ad8a6c;
      }

      .cls-63 {
        fill: #c39993;
      }

      .cls-64 {
        fill: #555b5b;
      }

      .cls-65 {
        fill: #e8e8e8;
      }

      .cls-66 {
        fill: #43291b;
      }

      .cls-67 {
        fill: #4a4043;
      }

      .cls-68 {
        fill: #563927;
      }

      .cls-69 {
        fill: #e7e7e7;
      }

      .cls-70 {
        fill: #c69d8a;
      }

      .cls-71 {
        fill: #070707;
      }

      .cls-72 {
        fill: #764f40;
      }

      .cls-73 {
        fill: #c3b69d;
      }

      .cls-74 {
        fill: #d7b09a;
      }

      .cls-75 {
        fill: #010101;
      }

      .cls-76 {
        fill: #ddd5c5;
      }

      .cls-77 {
        fill: #997763;
      }

      .cls-78 {
        fill: #1c181a;
      }

      .cls-79 {
        fill: #d7af9a;
      }

      .cls-80 {
        fill: #c2b4a0;
      }

      .cls-81 {
        fill: #45342d;
      }

      .cls-82 {
        fill: #090a0a;
      }

      .cls-121 {
        clip-path: url(#clippath);
      }

      .cls-83 {
        fill: #f3f2f5;
      }

      .cls-84 {
        fill: #b58b6c;
      }

      .cls-85 {
        fill: #fcfcfd;
      }

      .cls-86 {
        fill: #bbc8d0;
      }

      .cls-87 {
        fill: #b07f7c;
      }

      .cls-88 {
        fill: #b2897b;
      }

      .cls-89 {
        fill: #5d4e47;
      }

      .cls-90 {
        fill: #fcfcf8;
      }

      .cls-91 {
        fill: #4a2511;
      }

      .cls-92 {
        fill: #ad8980;
      }

      .cls-93 {
        fill: #7d655c;
      }

      .cls-94 {
        fill: #bbb39b;
      }

      .cls-95 {
        fill: #c1d1de;
      }

      .cls-96 {
        fill: #653f2b;
      }

      .cls-97 {
        fill: #ad8b7d;
      }

      .cls-98 {
        fill: #654836;
      }

      .cls-99 {
        fill: #c1b6a1;
      }

      .cls-100 {
        fill: #f3f5f6;
      }

      .cls-101 {
        fill: #cb9a8b;
      }

      .cls-102 {
        fill: #724e41;
      }

      .cls-103 {
        fill: #cac5cc;
      }

      .cls-104 {
        fill: #cea58b;
      }

      .cls-105 {
        fill: #92745f;
      }

      .cls-106 {
        fill: #825849;
      }

      .cls-107 {
        fill: #d8d5d5;
      }

      .cls-108 {
        fill: #835744;
      }

      .cls-109 {
        fill: #514037;
      }

      .cls-110 {
        fill: #453e35;
      }

      .cls-111 {
        fill: #8d6a4f;
      }

      .cls-112 {
        fill: #d6a68b;
      }

      .cls-113 {
        fill: #191919;
      }

      .cls-114 {
        fill: #c2b5a2;
      }

      .cls-115 {
        fill: #030303;
      }

      .cls-116 {
        fill: #603d2d;
      }

      .cls-117 {
        fill: #fefefe;
      }

      .cls-118 {
        fill: #775c4c;
      }

      .cls-119 {
        fill: #fcfbfb;
      }
    </style>
    <clipPath id="clippath">
      <rect class="cls-42" width="221.9" height="222"/>
    </clipPath>
    <clipPath id="clippath-1">
      <rect class="cls-42" x="0" y="-.2" width="222" height="222.2"/>
    </clipPath>
  </defs>
  <g class="cls-121">
    <g class="cls-120">
      <g>
        <path class="cls-117" d="M110.5,239.9c-41.6,0-83.3,0-124.9,0-3,0-3.6-.6-3.6-3.6.1-83.6.1-167.2,0-250.8,0-3,.6-3.6,3.6-3.6,83.6.1,167.2.1,250.8,0,3,0,3.6.6,3.6,3.6-.1,83.6-.1,167.2,0,250.8,0,3-.6,3.6-3.6,3.6-42-.1-83.9,0-125.9,0Z"/>
        <path class="cls-10" d="M197.9,197.9c2.9.3,7.1-1.4,6.1,4.4-.4,2.2,1.6,1.6,2.8,1.6,4,0,8,.1,11.9,0,2.1,0,3.4.2,3.2,2.9-.2,4.1-.2,8.3,0,12.4,0,2.2-.6,3-2.8,2.8-1.5-.2-3.7.6-3.2-2.3.7-3.7-1.4-4-4.2-3.8-1.8.2-3.6,0-5.5,0s-2.6-.1-2.3,1.7c1,5.4-2.8,4.3-5.7,4.3-3.1,0-6.9,1.5-6.6-4.6.1-2.8-3.9-.6-5.8-1.4h.1c0-1.8-.3-3.8,0-5.8.9-5.1-1.2-7.1-6.2-6.3h.1c.8-4.5-.6-6.7-5.9-6-4.1.5-8.3-.3-12.3.2-5.3.7-6.6-1.5-5.7-6.2.2-.2.4-.4.6-.6,2.9-.9,4.2-2.8,4-5.9-.2-3.1.2-5.9,3.9-7,2-.6,1.9-2.5,2-4.1.2-2.3-.3-4.7,1.4-6.6,4.8-2.2,9.9-1.7,14.7-1,6.6,1,8.4-4.9,12.6-7.1,1.1-.6,0-1.8-1.1-1.9-5.4-.5-10.9-.5-16.4,0-1.3.1-1.9,1.2-2.4,2.3-1.9,3.6-4.5,4-7.7,1.8-1.8-5.6-1.5-11.2-.3-16.9,1.9-2.9,4.9-2,7.6-2.3,1.2-.1,3,0,2.9-1.8,0-1.5-1.7-1.2-2.8-1.4-3.9-.8-5.7,1.5-7,4.6-4.6.9-4.9,6.7-9.3,8.1-1.7.5,0,2.1,1.2,2.6,3.6,1.5,4,4,2.5,7.2-1.8,1.7-4,1.4-6.1,1.4-2.9,0-4.8.9-5.3,3.9-.2.5-.6.9-1,1.3-1.9.9-3.7.9-5.6.1-.5-.3-.8-.7-1.1-1.2-.3-.8-.6-1.6-.5-2.4.7-4.6-1-7.8-5.4-9.5-1.2-3.8-1.4-7.6.2-11.3,3.4-2.7,7.4-1.6,11.1-1.6,4.2,0,6.3-1.3,6-5.7-.2-2.8.6-5.3,3.6-6.4,1.8-.6,2.1-2.4,3.1-3.8.9-1.5,2.7-1.7,4.1-2.5.8-.4,1.1-1.3.5-2.1-.7-.7-1.6-.4-2.1.3-.9,1.3-1,3.2-2.6,4.1-2.2,1-4.7,1.2-5.6-1.1-1.5-3.6-4.1-4-7.4-4.2-4.8-.2-5.6-1.6-4.8-6.7.2-.2.4-.4.6-.6,2.6,0,5.3-.1,7.9,0,2.9.2,4.9-.2,4.2-3.8-.4-2.3,1.1-2.2,2.7-2.3,1.2,0,3.6.9,3.2-1.6-.9-5.9,3.2-4.2,6.1-4.3.2.2.3.3.5.5.8,1.4.6,2.9.8,4.3.2,2.3-.7,5.3,3.1,5.7,3.2.3,6,.1,6.8-3.8,0-.3.3-.6.5-.8,1.7-1.3,3.6-1.3,5.5-.6.2.2.4.4.6.6-1,5.3,1.4,6.8,6.4,6.2,2.9-.4,6.7-1.2,5.7,4.2-.4,2.2,1.6,1.8,2.7,1.7,2.6-.3,3.7.7,3.2,3.3-.5,2.8,1.2,2.8,3.2,2.8,2.1,0,3.1-.5,2.8-2.8-.4-2.4.4-3.4,3.1-3.4,3.2,0,2.9,1.7,2.9,3.7,0,2.8,0,5.6,0,8.4-.2.2-.3.3-.5.5-1.2.9-3.7.2-3.7,2.4s2.5,1.5,3.7,2.4c.2.2.3.3.5.5v6.2h.1c-2.6-.1-5.3-.2-7.9,0-2.8.2-4.9-.1-4.2-3.8.4-2.2-1-2.3-2.7-2.3-3.1,0-6.2,0-9.4,0-1-1-1-2.5-1.7-3.5-.5-.8-1.4-1.1-2.1-.4-.7.7-.4,1.6.4,2.1,1.1.7,2.6.7,3.5,1.7,0,2.1,0,4.1,0,6.2-1,.9-2.5.9-3.6,1.7-.8.5-1.1,1.4-.4,2.1.7.7,1.6.4,2.1-.4.8-1.1.7-2.6,1.8-3.5,2.9.2,7.1-1.4,6.1,4.4-.2,1.3.6,1.7,1.8,1.7,1.5,0,3,.2,4.4,0,5.3-1.1,6.6,1.5,5.7,6.1l-.5.5c-3,.8-4.5,2.5-4.1,5.7.2,1.8.2,3.6,0,5.4-.3,3.2,1.2,4.9,4.1,5.7.2.2.3.3.5.5,0,2.8-.2,5.6.1,8.3.5,3.4-1.2,4.1-4.1,3.9-1.1,1.8-.2,4.2-2.1,5.7-4.9-.7-7.1,1.1-5.9,6.2-1,1-2.5,1-3.5,1.7-.8.5-1.1,1.4-.4,2.1.7.7,1.6.4,2.1-.4.7-1.1.7-2.6,1.7-3.5h0Z"/>
        <path class="cls-10" d="M84,6c0,4,0,8.1,0,12.1-.2.2-.3.3-.5.5-2.2,1.1-4.5.6-6.8.8-1.1.1-2.6,0-2.7,1.5,0,1.9,1.7,1.7,2.9,1.8,2.1.2,4.3-.1,6.3.5.4.2.8.5,1.2.8.5,3.4,2.7,5.1,5.8,5.8.4.4.6.9.8,1.4.8,7.1.6,14.3.1,21.4-.1.5-.3,1-.6,1.4-.3.3-.8.6-1.2.8-1.3.6-3.4.2-3.5,2.1-.1,2.3,2.5,1.7,3.7,2.6.2.2.3.3.5.5,0,2.8,0,5.6,0,8.5,0,2,.3,3.8-2.9,3.7-2.7,0-3.5-1-3.1-3.4.5-2.9-1.3-2.6-3.3-2.7-2.2-.1-2.9.7-2.8,2.8.2,3,.4,6,0,8.9-.7,5,.9,7.4,6.2,6.3,0,.2.1.4.2.7-.6,2-.9,4.1-2.3,5.7-3.9,1.9-2.4,3.7.2,5.5,1.6,2.7,1.5,5.1-1.1,7.2-2.1,1.1-1.7,3-1.8,4.8,0,2,.2,4-.9,5.8-3.4,2-3.3,4.3.3,7,1,3.8,1.3,7.5-.5,11.2-1.8,1.5-3.7,1.6-5.7.5-1.7-4.4-6.8-5.8-8.9-10.1-.9-1.9-3.9-1-6-.8-.7,0-1.3.4-1.5,1.1-.1.7.3,1.3,1,1.6,2.4.8,3.7,2.5,4.7,4.7.8,1.8,2.8,1.5,4.4,1.6,2.1.1,4.4-.2,6,1.6,1.6,5.1.6,6.8-4.5,7.1-3.2.2-6.3.1-9.5,0-2.5,0-4.6-.6-5.5-3.3-.3-.8-.6-1.7-1.6-1.6-1.3.1-1.3,1.3-1.4,2.3-.2,2.5-.2,4.7,2.8,6.2,3.7,1.9,3.8,5.4.6,7.9-.9.7-3,.7-2.4,2.5.5,1.4,2.3,1.1,3.5,1.2,6.8.7,7.3,1.1,6.5,6.8,0,.1-.1.3-.3.4-3.5,2.2-3.4,4.5.1,6.7,1.3,3.6,1.2,7.2.1,10.9-.2.2-.4.4-.6.6-.8,0-1.7,0-2.5,0-9.1,0-9.2,0-9.6-9.2-.2-5.5-4.2-1.6-6.1-2.9-.2-.2-.3-.3-.5-.5-.7-2.9-2.2-4.2-5.4-4.3-3.2,0-4.8,1.4-5.4,4.3-.2.2-.3.3-.5.5h-6.1c-.2-.2-.3-.3-.5-.5-.2-3.3-2.5-4.5-5.4-5-.4-.3-.7-.7-.9-1.2-.5-1.8-.6-3.5.6-5,.8-1.1,2.2-1.2,3.4-1.8.8-.4,1.3-.9,1-1.9-.1-.5-.5-.8-1.1-.8-.8,0-1.2.4-1.5,1-.6,1.1-.7,2.5-1.8,3.4-1.6,1.3-3.4,1.2-5.2.7-.5-.2-.9-.5-1.2-.9-.9-1.6-.9-3.5-.7-5.2.3-3.2-.9-5.3-4.1-6-.2-.2-.3-.4-.5-.5v-12.1c.2-.2.5-.4.7-.6,5.7-1.2,11.3-1.5,17,.2,1.6,3.9,4.3,5.8,8.7,5.2,1.3-.2,2.6.4,3.6,1.3,1.3,1.6,1.5,3.4.6,5.3-.3.4-.6.7-1,1.1-1.1,1.1-3.7.5-3.7,2.6s2.9,1.6,4,2.9c1.7,1,.9,4.8,3.3,4.1,2.5-.7.7-2.1-.7-2.7-.9-.4-1.8-.7-2.5-1.4-.5-.4.2,0-.3-.4-1-1.6-1-3.3,0-5,.5-.4-.2,0,.3-.4,3.5-2.2,3.5-4.4,0-6.4-1.8-3.2-1.4-5.7,2.3-7,2-.7,2.5-2.4,3.1-4.1.2-.5.5-.9,1-1.2,3.5-.7,5-2.8,4.6-6.4-.2-1.6,0-3.3.7-4.9.3-.4.7-.8,1.2-1,1.7-.7,3.2-1.4,4.2-3.2,2.4-4.2,5.8-4.4,8.2-.3,1.7,2.8,2.6,2.6,3.9,0,.6-1.3,1.6-2,2.8-2.7,3.9-2.5,4.1-7.2.2-9.4-2.4-1.4-3.1-3.2-3.2-5.7,0-2.3,0-4.7,0-7,0-2.4-.4-4.3-3-5.7-3.9-2.1-3.3-5.4,0-8.2,4.8-4.2,10.8-7.9,9.2-16.1-.7-3.4-.3-7.1,4.2-8.5,1.6-.5,1.6-2.4,2.6-3.6.9-1.4,2.4-1.7,3.7-2.3.6-.3,1-.8,1-1.5,0-.5-.3-.9-.9-1-.7-.1-1.3.3-1.6.9-.6,1.1-.7,2.6-1.8,3.4-3.2,1.8-5.7,1.4-7.1-2.3-.7-1.8-2.1-2.4-3.8-2.9-.4-.2-.8-.4-1.2-.8-.2-.2-.3-.5-.5-.8-.7-1.3,0-3.7-2.3-3.7-2.2,0-1.6,2.4-2.3,3.7-.2.5-.5.8-1,1.1-1.7.8-3.4.8-5.1,0-.2-.2-.4-.3-.6-.5-.4-2.8,1.4-7.2-4.4-6.1-1.8.3-1.6-1.1-1.6-2.3v-6c0-1.9-.6-3.9,2.8-3.8,2.6.1,3.7.7,3.2,3.3-.5,2.7,1.1,2.8,3.2,2.8,2.1,0,3-.5,2.9-2.7,0-1.2-1-3.6,1.6-3.2,5.8.9,4.1-3.3,4.4-6.1h-.1c2.6.1,5.3,0,7.9.1,2.8.2,4.3-.1,4.3-3.8,0-4.5,3.9-1.4,5.9-2.2h-.1c0-.1,0-.1,0-.1Z"/>
        <path class="cls-10" d="M215.9,65.9c0,3,1.5,7-4.3,6.2-2.6-.4-1.4,2-1.6,3.2-.3,1.7.1,3.1,2.3,2.7,3.1-.6,4.2.8,3.7,3.8-.3,1.7.5,2.6,2.2,2.2,3.7-.7,4,1.4,3.8,4.2-.2,3-.1,6,0,8.9,0,2.9.5,5.2-4.1,5.1-4-.1-.8,4-1.9,5.8h.1c-3.3,0-7.2-1.1-6.3,4.8.3,2.1-2.4.8-3.6,1.1-1.8.4-2.2-.6-2.2-2.3,0-4.2-.1-8.3,0-12.4.1-2.7-.8-3.6-3.3-3.3-1.6.2-3.3,0-5,0-2.4.2-4.3,0-3.8-3.3.4-2.1-.5-3.1-2.7-2.8-2.5.4-3.4-.5-3.4-3.2,0-2.7,1.2-3.1,3.3-2.8,2.7.4,2.8-1,2.9-3.2.1-2.7-1.1-2.8-3.2-2.9-8.9-.2-8.9-.3-8.9,8.7,0,3.2,0,6.3,0,9.5-.2.2-.4.3-.6.5-1.8.7-3.5.7-5.2-.1-.4-.3-.7-.7-.9-1.2-.7-1.9-.4-3.9-.6-5.8-.1-1.3.4-3.5-1.7-3.4-1.9,0-1.5,2.2-1.6,3.6-.2,1.9.2,4-.8,5.8-.2.2-.3.3-.5.5-3,0-7.1,1.6-6.1-4.3.4-2.2-1.6-1.7-2.7-1.6-2.6.3-3.5-.7-3.2-3.3.2-2.1,0-4.3,0-6.4s-.1-2.6,1.7-2.3c5.8,1,4.1-3.2,4.4-6.1.2-.2.3-.3.5-.5,1.2-.9,3.8-.2,3.7-2.5,0-2.3-2.6-1.5-3.8-2.3-.5-.2-.8-.6-1.1-1.1-.7-1.8-.7-3.6,0-5.4.3-.5.7-.8,1.1-1,1.9-.6,3.5-1.3,4.3-3.5,1.2-3.4,3.8-3.5,6.7-2.1,1.1.8,1.4,2.1,1.8,3.3.3.8.9,1.4,1.8,1.2.5-.1.8-.5.9-1,.1-1-.6-1.4-1.4-1.7-1.1-.4-2.2-.6-3-1.5-1.3-1.6-1.3-3.4-.5-5.2.2-.2.4-.4.5-.6,2.6,0,5.3,0,7.9,0,2.8-.2,4.4,0,4.3,3.7,0,4.5,4,1.3,5.9,2.4.2.2.3.3.5.5,1.1,3.1.7,5.5-2.8,6.7-.9.3-2,.7-1.8,2,.3,1.5,1.7,1.3,2.8,1.4,2.1.2,4.3-.2,6.4.5.4.2.8.4,1.2.7.4.5.6,1.2.8,1.8.3,1.1.3,2.6,1.8,2.6,1.8,0,1.8-1.6,2.1-2.8.1-.5.3-.9.6-1.4.3-.4.7-.7,1.2-.9,3.5-.7,7.1-.9,10.5.2.2.2.4.4.6.6h0Z"/>
        <path class="cls-10" d="M150,36.1c0-.7,0-1.3,0-2,0-3.1,1.1-7.1-.4-9.2-1.6-2.4-5.8-.7-8.9-.8-2.3,0-2.8-.9-2.7-2.9.1-3.3,0-6.6,0-9.9,0-3.1.6-6.1-4.3-5.3-2.6.4-1.6-1.9-1.7-3.2-.2-1.6-.2-3,2.2-2.8,2.6.2,5.3,0,8,0,1.1,0,2.1.3,1.8,1.6-1,5.8,3.1,4.3,6.1,4.3,1.2,1.7,1.5,3.5.5,5.3-.8,1.4-2.3,1.7-3.7,2.2-.8.3-1.3,1-1,1.9,0,.3.3.6.7.7.9.2,1.6-.3,1.9-1.1.5-1,.6-2.2,1.5-3,.5-.5,1-.8,1.7-1.1,1-.4,2.5-.4,2.5-1.9,0-1.6-1.4-1.6-2.5-1.9-.6-.2-1.2-.6-1.7-1,.5-2-1.1-5.2,1-5.8,3.2-.9,6.9-.4,10.4,0,1.1,0,.9,17.7-.1,17.6-9.4-.6-3.8,6.5-5.1,9.9-.4,1.1,0,2.5,1.7,2.2,4.8-1,4.5,2.1,4.3,5.2,0,1.5.1,3,0,4.5-.2,2.2,1,2.5,2.7,2.3,1.5-.2,3.7.8,3.3-2.1-.4-2.8.3-4.2,3.6-4,4,.3,2.1,3,2.3,4.7.3,2.5,0,5,0,7.5h.1c-1.7,1.5-4,1.4-6.1,1.4-3.2,0-4.6,1.3-4.5,4.5,0,2.1.2,4.4-1.5,6.1h.1c-1.5,1.3-3.3,1.3-5.2.8-.5-.2-.9-.4-1.2-.8,0-.1-.2-.3-.2-.4-.9-1.3,0-3.8-2.3-3.9-2.3-.1-1.6,2.5-2.6,3.7-.2.2-.3.3-.5.5-2.9.3-7-1.4-6.2,4.4.4,2.6-2,1.5-3.2,1.6-1.2.1-2.8.5-2.7-1.7,0-2.8,0-5.6,0-8.4,0-1.2.4-2,1.7-1.8,5.8,1.1,4.1-3.2,4.4-6.1.2-.2.3-.3.5-.5,1.4-.8,2.9-.6,4.3-.8,2.3-.2,5.3.9,5.7-2.9.3-3.3.1-6.4-4.1-7.1-.2-.2-.3-.3-.5-.5h0Z"/>
        <path class="cls-10" d="M20.6,42c-5.8,0-11.7-.1-17.5,0-2.4,0-3.1-.6-3.1-3C.1,27.1.1,15.1,0,3.1,0,.7.6,0,3.1,0,15,.1,27,.1,39,0c2.4,0,3.1.6,3.1,3-.1,12-.1,24,0,36,0,2.4-.6,3.1-3,3.1-6.2-.2-12.3,0-18.5,0h0Z"/>
        <path class="cls-10" d="M180,20.6c0-5.8.1-11.7,0-17.5,0-2.4.6-3.1,3-3.1,12,.1,24,.1,36,0,2.4,0,3.1.6,3.1,3-.1,12-.1,24,0,36,0,2.3-.6,3.1-3,3.1-12-.1-24-.1-36,0-2.4,0-3.2-.6-3.1-3,.2-6.2,0-12.3,0-18.5h0Z"/>
        <path class="cls-10" d="M21.6,179.9c5.8,0,11.7.1,17.5,0,2.4,0,3.1.6,3.1,3.1-.1,12-.1,24,0,36,0,2.4-.6,3.1-3,3.1-12-.1-24-.1-36,0-2.4,0-3.1-.6-3.1-3.1.1-12,.1-24,0-36,0-2.4.6-3.1,3-3.1,6.2.2,12.3,0,18.5,0h0Z"/>
        <path class="cls-10" d="M18.1,96.1v-12.1h-.1c5,1,6.9-1,6.1-6-.3-1.9,0-3.9,0-5.8.6-.6,1.2-.7,1.9-.2,1.5.5,2.8,0,4-.9.5.4.8.9,1.1,1.5,1.1,5.4.3,10.9.5,16.4.2,5.1.6,5.6,5.8,5.7,6,0,11.9,0,17.9,0,3,0,5.8.6,5.8,4.5,0,3.6-2.6,4.4-5.5,4.3-4.3-.1-6.6,1.5-6.2,6.1.1,1.7-.3,3.3-1.5,4.6h.1c-3.4,2.5-7.3,1.1-11,1.4-2.3.2-4.6-.1-5.8,2.7-1.4,3.3-3.9,3.6-6.9,2.3-1.1-.9-1.5-2.2-1.6-3.5,0-3.7,0-7.2-4.5-8.8-1.8-.7-1.6-3.1-1.3-4.9.1-.5.3-.9.6-1.4.4-.3.8-.6,1.2-.8,1.2-.6,3.4,0,3.4-2.1,0-2.2-2.5-1.6-3.7-2.5-.2-.2-.3-.3-.5-.5h0Z"/>
        <path class="cls-10" d="M78.1,197.9c-5.3-1-6.7,1.4-6.2,6.5.5,4.8,0,9.6.1,14.4,0,2.2-.2,3.4-2.9,3.2-2.1-.1-3.6-.2-3.2-2.9.3-2.1,0-3.3-2.8-3.3-2.7,0-3.6.9-3.2,3.4.4,2.2-.7,2.8-2.8,2.8-2.1,0-3.7,0-3.2-2.8.5-2.6-.7-3.7-3.2-3.2-2.8.5-2.7-1.2-2.8-3.2,0-2.2.6-3,2.8-2.8,2,.2,4-.1,6,0,2.5.2,3.8-.5,3.3-3.2-.3-2.1.4-3.2,2.7-2.8,2.5.4,3.4-.5,3.4-3.2,0-3.3-1.8-2.9-3.8-2.8-1.8,0-3.7.1-5.5,0-2-.2-3.2.3-2.8,2.7.4,2.4-.3,3.4-3.1,3.5-3.2,0-3-1.7-2.9-3.7,0-.8,0-1.7,0-2.5,0-8,4-12,12.1-11.8.2.2.3.3.5.5.9,1.2.2,3.9,2.5,3.7,2.4-.1,1.4-3,2.6-4.3.3-.4.7-.6,1.2-.9,3.1-.8,5.6-.2,6.6,3.3.7,2.4,3.2,2.1,4.7,3.3,1.4,1.7,1.4,3.6.6,5.5-.2.2-.4.4-.6.6h0Z"/>
        <path class="cls-10" d="M108.1,60h-18.2.1c-1.7-1.9-1.7-4,0-6h-.1c4-1.4,5.1-4.4,4.7-8.5-.2-2.3-.2-4.6,0-6.9.4-4-.7-7.1-4.7-8.6h.1c-1.2-2.7-3.2-4.8-6.1-6h.1c-1.7-1.9-1.7-4,0-6h-.2c3,.1,6,.2,9,0,2.3-.1,3.5.4,3.1,3-.5,2.9,1.1,3.3,3.4,3.1,1.8-.1,3.7.1,5.5,0,2.3-.2,3.5.4,3.1,2.9-.4,2.3.3,3.6,2.9,3.1,2.9-.5,3.2,1,3.1,3.4-.1,2.8,0,5.7,0,8.5v-.2c-3.4.5-6.9,1.4-6.2-4.4.2-2.1-1.9-1.2-3.1-1.3-1.2,0-2.8-.6-2.8,1.6,0,4.8,0,9.6,0,14.5s.2,2.1,1.6,1.8c5.8-1,4.3,3.1,4.3,6.1h.1c0-.1,0-.1,0-.1Z"/>
        <path class="cls-10" d="M17.9,66c-4,0-8,0-11.9,0h.1c-.3-2.7,1.4-6.9-4.5-6-2.5.4-1.4-2-1.6-3.3-.3-1.8.2-3,2.3-2.6,2.6.4,4.2-.2,3.7-3.3-.4-2.3.7-2.8,2.8-2.7,2.1,0,3.6.1,3.2,2.8-.3,2,0,3.4,2.7,3.3,2.6,0,3.7-.7,3.2-3.3-.4-2.1.5-2.9,2.7-2.8,6.3.1,12.6.1,18.9,0,2.1,0,2.6.9,2.3,2.7-.2,1.2.9,3.7-1.6,3.3-5.8-.9-4.1,3.3-4.5,6.2-.2.2-.4.3-.5.5-1.7.7-3.4.7-5.1,0-.4-.2-.7-.6-1-1-.8-1.3,0-3.8-2.3-3.8-2.2,0-1.5,2.6-2.3,3.9-.2.4-.6.7-1,1-3.3.3-4.9,2.5-5.8,5.3h0Z"/>
        <path class="cls-10" d="M6.1,131.9c-4.8.9-6.8-.5-6.2-5.8.5-4.2.2-8.6,0-12.9,0-3.1-.5-6.1,4.3-5.2,2.2.4,1.8-1.5,1.7-2.7,0-1.1.8-3.4-1.2-3.1-7,.9-4.4-4.2-4.7-7.3-.3-3-.4-5.8,4.1-4.8,1.1.2,2.1.4,1.8,1.7-1,5.3,2.6,4.3,5.6,4.4,2.2,0,4.3,0,6.5,0h-.1c1.7,1.9,1.7,4,0,6h.1c-2.5,1.4-5.3,2.5-4.7,6.4.3,1.9.6,3.4,2.6,4.3,3.7,1.7,4,4.3,2,7.6-1.6,1.1-3.4,1.2-5.2,1.1-3.7-.2-5.6,1.2-5.3,5.1.1,1.9,0,4-1.5,5.6h.1c0-.1,0-.1,0-.1Z"/>
        <path class="cls-10" d="M126.1,203.9c-2.9,0-7.1,1.6-6.1-4.2.2-1.3-.6-1.9-1.7-1.7-4.2.9-4.7-1.4-4.3-4.7,0-.7-.2-1.3-.9-1.5-.6-1.2-1.4-2.1-2.9-2.4-2.7-.5-3.9-2.3-3.7-5,.2-2.8,0-5.6.4-8.4.3-1.6,1.2-2.7,2.8-3,1.7-.3,3.9-.4,4.4,1.2,1.6,4.5,5.2,4.4,8.8,4.4,1,0,1.9.3,2.8.9,1.6,2.2,2.4,4.9,5.5,5.9,2.1.7,1.9,3.2,2,5.2,0,2,.1,4-.3,5.9-.1.5-.4.9-.6,1.4-2.4,1.3-5.8,1.6-5.9,5.4-.2.2-.3.3-.5.5h0Z"/>
        <path class="cls-10" d="M36,60.1h12.1c.2.2.4.4.6.6.9,1.7.8,3.5.8,5.4,0,2.1.6,3.9,2.8,4.7,1.3.5,2.5,1.3,2.6,2.8.3,4.5,1.2,8.3,5.5,11.3,2.3,1.6.4,5.9-2.8,6.3-6.4.7-12.9.7-19.3,0-2.3-.2-3.4-1.9-3.4-4.2,0-2.3,1.2-3.6,3.5-4.2,2.3-.5,5,.4,7.3-1.6-1.5-2.2-3.6-1.6-5.4-1.7-3.8-.2-6-1.7-5.4-5.8,0-.5.3-1,.5-1.4.2-.3.5-.4.7-.7,1.3-1.1,4.3,0,4-2.8-.2-2.1-2.8-1.3-4.1-2.3-.4-.3-.7-.7-.9-1.2-.6-1.9-.6-3.8.9-5.3h-.1c0,.1,0,.2,0,.2Z"/>
        <path class="cls-10" d="M107,186.1c1,1.3,1.7,2.5,3.9,2.1,2.8-.5,3.5,1.1,2.1,3.6-2.9,0-6.1-.2-5,4.5.2.8-.1,1.9-1.2,1.6-5.8-1.2-4.7,2.9-4.8,6.1h.1c-2,0-4,0-6,0-1.9.7-4,0-5.9.9-1.7-2-4-1.1-5.9-.9-4.9.6-7.4-.8-6.2-6.2h-.1c.5-.3,1-.7,1.7-.9l13.4-6.8c1.5-1,1.4-2.5,1.5-4,.2-2.1-.2-4.3,1.2-6.2,3.3-2,6-1.6,7.6,2.2.7,1.9,2.7,2.4,3.7,4h0Z"/>
        <path class="cls-10" d="M48.1,60.1c0-6.1.4-12.2-.2-18.3-.5-5.3,1.6-6.6,6.2-5.7h-.1c.3.2.7.6.9,1,.7,1.2.4,3.2,2.4,3,1.6-.2,1.4-2,2-3,.2-.4.5-.8.9-1.1h-.1c2-1.5,4.1-1.5,6.1.1h-.1c2.8,3.7,1.6,8.2,1.7,12.4.2,13.4-.1,13.6-13.6,13.1-2.2,0-4.3-.1-6.1-1.7v.2c.1,0,.1,0,.1,0Z"/>
        <path class="cls-10" d="M192,54.1c.2-2-1.2-5.2.9-5.8,3.2-.9,6.9-.3,10.3,0,1.1,0,.8,1.7.7,2.6-.4,2.6.7,3.3,3.3,3.3,2.7,0,3.1-1.2,2.7-3.3-.4-2.7,1.1-2.8,3.2-2.9,2.6-.2,3,1,2.9,3.2-.2,3,0,6,0,8.9-.2.2-.4.3-.6.5-1,.6-2.2.8-3.3.7-4-.5-6.9.8-8.2,4.8h.1c-2.1,1.5-4.1,1.5-6.1-.1h.1c-1.2-1-1.6-2.5-1.4-3.9.4-3.9-1.1-6.6-4.7-8.1h.1c0,.1,0,.1,0,.1Z"/>
        <path class="cls-10" d="M156,191.9c-3.2.1-7.3-1-6.2,4.9.3,1.7-1.6,1.2-2.6,1.2-3.1,0-6.2,0-9.4,0-.2-.2-.3-.4-.5-.6-1.1-3.1-.7-5.6,2.8-6.6,2.4-.7,2.4-2.9,3.2-4.6.3-.4.7-.8,1.2-1,3.1-.7,3.9-2.8,4-5.8.2-3.8-1.2-7.9,1.4-11.4h-.1c2.7-1.7,6.2-2,6.8,1.4,1.3,7.5,2.3,15.2-.8,22.7h.1v-.2Z"/>
        <path class="cls-10" d="M12.1,161.9c-5.3-1-6.9,1.4-6.2,6.4.2,1.8,1.1,4.1-.8,5.5-2.1,1.6-5.1-.4-5.1-3.1,0-7,.4-14-.2-20.9-.4-5.3,1.5-6.7,6.2-5.8h-.2c1.2,1,1.6,2.4,1.4,3.9-.4,3.9,1.1,6.6,4.7,8.1h-.1c1.5,1.5,1.5,3.3.7,5.2-.2.2-.4.4-.6.6h0Z"/>
        <path class="cls-10" d="M101.9,204c4.7-.9,7.2.5,6.1,5.8-1.1,5.3,1.3,6.9,6.3,6.2,2.6-.4,5.3,0,7.9-.1,2.5-.1,3.9,0,3.8,3.3,0,3.3-1.9,2.8-3.8,2.8-5.5,0-10.9-.1-16.4,0-2.9.1-4.2-.4-3.9-3.7.3-4.8.1-9.6.1-14.4h-.1Z"/>
        <path class="cls-90" d="M125.7,81.9c1.9-1.3,4.8,1,6.2-1.8,3.1.8,5.9,2,8.6,3.8,1.5,1.8,2.9,3.6,2.2,6.2-1.9,4.1-1.2,8.5-1.2,12.9,0,3.7.1,7.4,0,11.1,0,3.8,0,7.5,0,11.3-.3,4.1,1,8.4-1.8,12.1-.3.4-.7.8-1.1,1.1-1.9,1.2-3.7,2.7-6.2,2.4-.5-.1-.9-.3-1.3-.7-.5-1.1,0-2,.7-2.8.8-1,1.8-1.9,2.8-2.8,1.2-1.8,2.2-3.7,2.2-6,0-11.5.1-23,0-34.4,0-1.7-.2-3.3-.9-4.8-.8-1.3-1.4-2.8-3-3.4-5.5-1.2-11.1.7-16.5-1.2-1-2.2.2-3.4,3.7-3.6,2.1-.3,4.1-.7,5.9.9h0Z"/>
        <path class="cls-10" d="M107.9,6c.3,2.9-1.4,7,4.4,6.2,2.6-.4,1.4,2,1.6,3.3.2,1.3.4,2.8-1.8,2.7-2.5,0-5-.2-7.5,0-2.2.2-2.9-.6-2.8-2.8,0-1.2.9-3.6-1.7-3.2-4.9.8-4.4-2.2-4.3-5.3,0-1.7,0-3.3,0-5-.1-2.2,1.4-1.9,2.7-1.8,1.2.2,3.6-1,3.3,1.6-.9,5.8,3.3,4.1,6.2,4.4h-.1c0-.1,0-.1,0-.1Z"/>
        <path class="cls-10" d="M120,54c-4.7.9-7.1-.6-6.1-5.8.4-2.1.2-4.3.3-6.4,0,0-.1.2-.1.2,3.9.1,5.9-2.1,5.9-6.8,0-2.7-.9-5.8,3.9-5.1,1.8.3,2.1.9,2.1,2.4,0,3.6-.1,7.3,0,10.9.1,3.1.2,5-4.2,5-3.8,0-.8,4-1.9,5.9h.1c0-.1,0-.1,0-.1Z"/>
        <path class="cls-10" d="M209.9,156c2.8,0,5.6,0,8.4,0,2,0,3.8-.4,3.8,2.8,0,2.6-.8,3.6-3.4,3.2-2.1-.4-3,.5-2.8,2.7.1,1.1-.2,2.4,0,3.5,1.1,5.3-1.4,6.6-6.1,5.7h.1c-2.6-5.9-2.6-11.9,0-18h-.1c0,.1,0,.1,0,.1Z"/>
        <path class="cls-75" d="M66.1,12c-2-.2-5.2,1.2-5.8-.9-.9-3.2-1.2-7.3.1-10.2,1-2.2,5.2-.4,7.8-.9,3.7-.7,4.1,1.3,3.8,4.2-.1,1.1-.3,2-1.7,1.8-5.8-1.1-4.1,3.2-4.4,6.1h.1c0-.1,0-.1,0-.1Z"/>
        <path class="cls-10" d="M143.8,206.9v-1c-.4-.7-.5-1.3.2-1.9,5,0,10,0,15-.2,2.4-.1,3.1.6,3.1,3.1s-.7,3.1-3.1,3.1c-5-.2-10-.1-15-.2-.9-.9-.7-1.9-.2-2.9Z"/>
        <path class="cls-75" d="M144,48c-2,0-4-.2-5.9.1-5.2.9-6.2-1.3-6.4-6.3-.1-5.3,1.7-6.5,6.3-5.7.2.2.3.3.5.5.2,3.3,2.6,4.5,5.4,5,.4.3.7.7.9,1.2.5,1.9.6,3.7-.9,5.3h.1c0-.1,0-.1,0-.1Z"/>
        <path class="cls-2" d="M140,84.2c-3-.8-6.1-1.4-8.2-4.2,0-1.5.2-2.9.2-4.4,0-2-.4-3.8,2.8-3.7,2.6,0,3.4.7,3.2,3.3-.3,5.4,4.1,1.6,6,2.9h-.1c0-.1,0,5.9,0,5.9-.2.2-.4.3-.5.5-1.2.6-2.3.4-3.4-.4h0Z"/>
        <path class="cls-38" d="M120.3,81.9c-1.2,1.2-4.4-1.9-4.3,2.1-5.6,2.9-11.4,1.1-17.2,1.2-1.5-.4-2.8-1.2-3.5-2.7-.5-1.5-.4-2.9.7-4.2,3.7,1.1,7.3,4.2,11,0,.3-.5.7-.5,1.1,0h-.1c1.9,2.7,3.9,3.1,6,0,1.8,1.2,3.5,2.4,5.9,2,.7.5.8,1.1.5,1.8h0Z"/>
        <path class="cls-82" d="M140.1,113.6c0-3.7,0-7.4,0-11.2.5-1.2,1.6-1.4,2.7-1.6,2.2,0,4.4-.3,6.5.7.2.2.4.4.6.6.2,3.2,1.2,6.4-4.4,6.2-2.9,0-.8,3.8-1.6,5.7h.1c-.6.5-1.3.9-2.1.9-.8,0-1.6-.3-1.8-1.3Z"/>
        <path class="cls-75" d="M90.2,204.9c1.5-3.2,3.8-1.7,5.9-.9,0,2.8-.1,5.6,0,8.5,0,2.3-.2,3.5-3.1,3.6-3.2,0-3-1.6-2.9-3.7,0-2.5.1-5,.2-7.5Z"/>
        <path class="cls-10" d="M6,65.9c0,2.8,0,5.6,0,8.4,0,2,.4,3.7-2.8,3.8-3.2,0-3.5-1.4-3.2-3.9,0-.8.2-1.7,0-2.5-1.1-5.3,1.4-6.6,6.1-5.7h-.1c0-.1,0-.1,0-.1Z"/>
        <path class="cls-10" d="M168.3,215.9c2.2.6,6.5-1.9,5.8,3.9-.2,1.8-.8,2.2-2.4,2.2-1.8,0-3.6,0-5.4,0-2.1,0-4.5.9-4.4-3.1,0-4.2,2.7-2.6,4.6-2.9.5,0,1,0,1.8,0h0Z"/>
        <path class="cls-10" d="M143.9,84.1c5.2-1.1,6.9,1.2,6.1,6.1-.3,1.9,0,3.9-.1,5.9-.2.2-.5.4-.8.6-5.4.7-6.8-.4-6.3-5.6.2-2.4-.8-5,1.2-7.1h-.1c0,.1,0,.1,0,.1Z"/>
        <path class="cls-75" d="M132,18.1c-1.3,1.6,2.7,6.2-3.2,6-2.1,0-3.1-.5-2.8-2.8.2-1.6,0-3.3,0-5,0-2.2-.8-4.6,3.2-4.5,3.8.1,2.6,2.4,2.8,4.3,0,.5,0,1,0,1.9h0Z"/>
        <path class="cls-10" d="M42,167.9c.1,6.1,0,5.6-6.7,6.2-5.5.5-5.8-2.2-5.2-6.2h-.1c4-2.2,8.1-2.2,12.1.1h-.1Z"/>
        <path class="cls-10" d="M119.9,54.1c2,.2,5.3-1.2,5.8.8.9,3.2.6,6.9,0,10.3-.2,1.6-2.6.6-4,.8-1.6.2-1.8-.8-1.8-2.1,0-3.3,0-6.6,0-9.9h-.1Z"/>
        <path class="cls-71" d="M120.3,81.9c-.2-.6-.3-1.2-.5-1.8,0-1.7.3-3.3.1-5-.2-2.3.5-3.2,3-3.1,2.3,0,3.4.5,3.1,3-.3,2.3-.3,4.6-.4,6.9h-5.3,0Z"/>
        <path class="cls-52" d="M96,78.1c0,1.2,0,2.3-.1,3.5-3.5,3-7.9,1.5-11.9,2.3h.2c-.9-4.4.2-7,5.5-6,2,.4,4.2.1,6.3.2Z"/>
        <path class="cls-13" d="M209.9,189.9c5.5-.2,3.5-4.3,3.2-7-.2-2.9-.6-2.9,2.8-2.9,1.5,1.8,1.4,4,2,6.1-.7,2-1.4,3.9-2.1,5.9-1.9,1.5-3.9,1.5-5.8,0-1.2-.6-.2-1.4-.1-2h0Z"/>
        <path class="cls-56" d="M17.9,66c-.9-5,1.4-6.8,6.2-6,1.5,1.8,1.4,4.1,1.9,6.2-1.8,1.6-3.2,3-4.6-.7-1.3-3.7-2.1,1.8-3.5.5Z"/>
        <path class="cls-75" d="M26.1,66.2c-3.9-1.1-1.2-4.2-1.9-6.2h-.1c2-1.5,4.1-1.5,6.1.1h-.1c1.5,1.6,1.5,3.6,1,5.6-.2.6-.5,1-1,1.4-1.2-.9-2.4-1.5-4-.9h0Z"/>
        <path class="cls-75" d="M30,67.1c0-.4,0-.8,0-1.2,2.1-1.5,4.1-1.4,6,.2h-.1c1.7,1.9,1.7,4,0,6h.1c-2,1.4-4,1.6-6,0,0-.4,0-.8,0-1.2-1.3-1.3.3-2.5,0-3.8h0Z"/>
        <path class="cls-75" d="M84.1,6.1c.9-2-2.7-5.9,2.7-6.1,2.5-.1,3.4.6,3.3,3.2-.2,5.4-4.1,1.8-6.1,2.8h.1c0,.1,0,.1,0,.1Z"/>
        <path class="cls-75" d="M108.1,6.1c1-2-2.8-5.9,2.7-6.1,2.6,0,3.3.7,3.3,3.3-.2,5.5-4.1,1.7-6.1,2.7h.1c0,.1,0,.1,0,.1Z"/>
        <path class="cls-75" d="M174,3.7c.6,2.9-1.6,2.2-3.3,2.4-2.8.3-2.6-1.3-2.7-3.2-.3-3.2,1.7-2.7,3.6-2.8,3.1-.3,2.3,1.9,2.4,3.7h0Z"/>
        <path class="cls-75" d="M51.1,11.9c-2.8.6-3-.8-3.2-2.9-.2-3,1.3-2.9,3.5-3.1,2.9-.2,2.5,1.5,2.7,3.3.2,2.6-1,3.2-3,2.6Z"/>
        <path class="cls-75" d="M171.6,12.1c2.9-.5,2.2,1.6,2.4,3.3.3,2.8-1.3,2.5-3.2,2.7-3.2.3-2.7-1.7-2.8-3.6-.2-3.1,1.8-2.4,3.7-2.4Z"/>
        <path class="cls-75" d="M173.9,27c.5,2.3-.4,3.1-2.8,3.1-2.6,0-3.2-.9-3.2-3.3,0-2.6,1.1-2.8,3.2-2.9,2.4,0,3.4.7,2.9,3Z"/>
        <path class="cls-75" d="M138.1,36.1c1-2-2.8-5.9,2.7-6.1,5.8-.2,2.4,3.9,3.2,6.1-.2.2-.4.4-.6.5-1.9.8-3.8.8-5.4-.7h.1c0,.1,0,.2,0,.2Z"/>
        <path class="cls-75" d="M143.9,36.1h6.1v-.2c1.4,2.1,1.8,4.4-.2,6.2-1.8,1.7-4,1.2-5.9-.3h.1c-1.6-1.9-1.6-4,0-6h-.1c0,.1,0,.2,0,.2Z"/>
        <path class="cls-75" d="M107.9,60.1c2,1,6-2.8,6.1,2.7,0,2.6-.7,3.3-3.3,3.3-5.5-.2-1.7-4.1-2.7-6.1h-.1c0,.1,0,.1,0,.1Z"/>
        <path class="cls-75" d="M156,65.9c-5.1,1.1-7.1-.8-6-6h-.1c2-1.5,4.1-1.5,6.1.1h-.1c1.5,1.5,1.5,3.3.7,5.2-.2.2-.4.4-.6.6h0Z"/>
        <path class="cls-75" d="M215.9,60.1c2,1,5.9-2.8,6.1,2.7.2,5.7-3.9,2.4-6.1,3.2v.2c-1.5-2.1-1.5-4.1.1-6.1h-.1c0,.1,0,.1,0,.1Z"/>
        <path class="cls-75" d="M102.2,71.7c-2.1-.6-5.9,2.9-6.2-2.3-.1-1.8-.4-3.3,2.5-3.5,5.6-.3,2.7,3.8,3.6,6v-.2c.1,0,.1,0,.1,0Z"/>
        <path class="cls-75" d="M162,71.9c-5.2,1.2-7.1-.9-6-6h-.1c2.1-1.5,4.1-1.5,6.1.1h-.1c1.6,1.9,1.6,3.9,0,6v-.2Z"/>
        <path class="cls-75" d="M108.1,78.1c-.4,0-.7,0-1.1,0-5.6.8-5.6-2.5-4.8-6.4,0,0-.1.2-.1.2,5.1-.9,6.8,1.4,6,6.2Z"/>
        <path class="cls-75" d="M144,78.1c1.1-2-2.8-6,2.7-6.2,2.6,0,3.4.7,3.3,3.3-.1,5.5-4.2,1.7-6.1,2.8h.1Z"/>
        <path class="cls-75" d="M18.1,83.9c-2-1-5.9,2.7-6.1-2.7,0-2.6.7-3.3,3.2-3.3,5.5.2,1.7,4.1,2.7,6.1h.1c0-.1,0-.2,0-.2Z"/>
        <path class="cls-75" d="M149.9,96.1c2.4.5,6.9-2.2,6.1,3.7-.6,4.4-4.1,1.3-6.1,2.3h.2c-1.7-2-1.6-4.1,0-6.1h-.1Z"/>
        <path class="cls-75" d="M168,102.1v-6.1h-.1c2.1-1.5,4.1-1.5,6.1.1h-.1c1.6,1.9,1.7,3.9.2,6-2.1,1.5-4.2,1.4-6.2-.2h.1c0,.1,0,.1,0,.1Z"/>
        <path class="cls-75" d="M179.9,96.1c5.1-1.1,7.1.9,6,6-.2.2-.4.4-.7.6-2.1.8-4,.8-5.7-.9-1.1-2-1-4,.5-5.8h-.1c0,.1,0,.2,0,.2Z"/>
        <path class="cls-75" d="M215.9,132.1c2,1,5.9-2.8,6.1,2.7.2,5.7-3.9,2.4-6.1,3.2h.1c-1.6-1.9-1.6-3.9,0-6h-.1v.2Z"/>
        <path class="cls-75" d="M215.9,144.1c2,.9,5.9-2.7,6.1,2.7.1,2.6-.6,3.4-3.2,3.3-5.4-.2-1.8-4.1-2.7-6.1h-.1c0,.1,0,.1,0,.1Z"/>
        <path class="cls-75" d="M18.1,167.9c-5.1,1.1-7.1-.9-6-6h-.1c2.1-1.5,4.1-1.5,6.1.1h-.1c1.5,1.5,1.5,3.3.7,5.2-.2.2-.4.4-.5.6h0Z"/>
        <path class="cls-75" d="M24,167.9c-.8,2.2,2.6,6.3-3.2,6.1-5.4-.2-1.7-4.1-2.7-6.1h-.1c2-1.5,4.1-1.5,6.1.1h-.1c0-.1,0-.1,0-.1Z"/>
        <path class="cls-75" d="M215.9,108c2,1,5.9-2.7,6.1,2.8,0,2.7-.8,3.3-3.3,3.2-5.4-.2-1.8-4.1-2.6-6.2h-.1c0,.1,0,.1,0,.1Z"/>
        <path class="cls-75" d="M60.1,186v-6.1h-.2c2-1.4,4.1-1.6,6.2,0,1.5,2.1,1.4,4.2-.2,6.2h.1c-2.1,1.5-4.1,1.5-6.1-.1,0,0,.2.1.2.1Z"/>
        <path class="cls-75" d="M217.9,186.1c-4.1-.9-1.1-4.1-2-6.1,2,.4,4.8-1.6,5.8,1.2,1,2.9.2,5.4-3.9,4.8h0Z"/>
        <path class="cls-75" d="M210,192h5.8c-.9,1.9,2.5,5.5-2.4,6-5.8.5-2.8-3.7-3.4-6h0Z"/>
        <path class="cls-75" d="M137.9,197.9c1.1,5.1-.9,7.1-6,6-.2-.2-.4-.4-.5-.6-.8-1.9-.8-3.8.7-5.4h-.1c2.1-1.5,4.1-1.5,6.1.1h-.1c0-.1,0-.1,0-.1Z"/>
        <path class="cls-75" d="M185.9,102.1c2,1,5.9-2.7,6.1,2.7.2,5.8-3.9,2.4-6.1,3.2v.2c-1.5-2.1-1.5-4.1.1-6.1h-.1Z"/>
        <path class="cls-75" d="M132,209.9c-4.9.9-7.1-.9-5.9-6.1h-.2c2.1-1.5,4.1-1.5,6.1.1h-.1c0,1.9,0,4,0,6.1h.1c0-.1,0-.1,0-.1Z"/>
        <path class="cls-75" d="M179.8,203.8c-.9,2,2.7,5.9-2.6,6.1-2.5.1-3.4-.6-3.3-3.2.1-5.4,4.1-1.8,6.1-2.8h-.1q0-.1,0-.1Z"/>
        <path class="cls-75" d="M131.8,210.1l1.2-.3c1.7-.7,3.3-1.4,4.9.2-.4,2.5,2.2,6.8-3.6,5.9-4.4-.6-1.3-4.1-2.3-6h-.1v.2Z"/>
        <path class="cls-75" d="M84,219.1c.6,2.6-.8,2.8-3,2.9-3,.2-2.9-1.3-3.1-3.5-.2-2.9,1.5-2.5,3.3-2.7,2.7-.2,3.1,1.1,2.7,3.2h0Z"/>
        <path class="cls-75" d="M149.9,218.5c.5,2.5-.1,3.6-2.7,3.4-1.9-.1-3.4,0-3.3-2.7.1-2.2.2-3.7,3.1-3.4,2.1.2,3.8.2,2.9,2.7Z"/>
        <path class="cls-75" d="M185.9,215.9c-1,2,2.8,6-2.7,6.1-2.6,0-3.4-.6-3.3-3.3.2-5.4,4.1-1.7,6.1-2.7h-.1c0-.1,0-.1,0-.1Z"/>
        <path class="cls-56" d="M137.9,210c-1.6,0-3.2-.1-4.9-.2,1.8-3.1,3.4-6.2,7.1-1.5,1.8,2.3,1.9-2.4,3.7-1.3,0,1,.1,1.9.2,2.9h-6.1q0,.1,0,.2Z"/>
        <path class="cls-13" d="M203.9,191.8c1.3-1.7-2.4-5.2,2.1-5.7.8,1.8,4.7.4,4,3.8-1.4-.9-2,0-2.6,1.1-.8,1.8-2,1.7-3.5.8h0Z"/>
        <path class="cls-51" d="M113.9,78c.3,2.2.3,3.7-2.7,3.8-3.2.1-3.5-1.5-3.3-3.9,2,0,4,0,6,0h0Z"/>
        <path class="cls-56" d="M26.1,71.8c-.6,0-1.3.1-1.9.2-1-.6-2.6-1.3-.9-2.4,1.9-1.2,2.5.6,2.8,2.2Z"/>
        <path class="cls-56" d="M144,204c0,.6-.1,1.2-.2,1.9-.8-1.2-3.1.7-3-1.1.1-2.2,1.9-1.6,3.2-.8h0Z"/>
        <path class="cls-13" d="M220.4,192.6c-.2-.9-.4-1.3-.3-1.7.1-.4.4-1,.8-1.2.6-.3.9.2.7.7-.2.6-.6,1.1-1.2,2.1h0Z"/>
        <path class="cls-117" d="M138.1,198h-6.1c0-2.6,0-5.3.1-7.9.2-2.8,0-4.4-3.7-4.3-4.5,0-1.4-3.9-2.2-5.9.2-.2.3-.3.5-.5,1.2-.9,3.8-.2,3.7-2.4-.1-2.4-2.9-1.5-4.2-2.6-.4-.3-.7-.7-.9-1.2-.7-3.5-.8-7,0-10.4.2-.5.5-.9.9-1.2,1.8-1,3.8-1,5.7-.8,3.2.3,4.9-1.2,5.6-4.1.2-.2.4-.4.5-.5,4.5-.8,7.1.3,6.1,5.7-.4,2.1,0,4.2,0,6.4-1,.9-2.5.9-3.6,1.7-.8.5-1.1,1.4-.4,2.1.7.7,1.6.4,2.1-.4.8-1.1.7-2.6,1.8-3.5,2,0,4.1,0,6.1,0,0,3.9-.4,7.9,0,11.8.6,5-1,7.2-6.2,6.3-1-1-1-2.5-1.7-3.5-.5-.8-1.4-1.1-2.1-.4-.7.7-.4,1.6.4,2.1,1.1.7,2.6.7,3.6,1.7-.2,3.1,1.1,6.8-4.8,6.4-2.5-.2-.7,3.8-1.2,5.8h0Z"/>
        <path class="cls-56" d="M142,114.2c.7,0,1.4-.2,2.1-.2-.9,4.6.4,7,5.7,6.2,3.1-.5,6.8-1.4,6.5,4.6-.1,2.8,3.9.5,5.8,1.4h-.1c0,2.9,1.6,6.8-4.3,6-2.6-.4-1.6,2-1.6,3.2-.4,8.7-.3,8.7-9.2,8.7-3,0-5.9,0-8.9,0-.2-.2-.4-.4-.5-.6-.8-1.9-.8-3.7.7-5.4h-.1c1.5-1,3.3-1.3,5.1-1.3,2.6,0,5.4.2,5.6-3.7.2-3.6-.9-5.7-4.7-5.9-4.7-3.7-2.8-8.3-1.9-12.8h0Z"/>
        <path class="cls-56" d="M155.9,192c0-6.1-.4-12.2.2-18.3.5-5.4-1.6-6.6-6.2-5.7-.9-5.1,1.2-6.9,6.3-6.1,1.9.3,3.9.1,5.9.1.2.2.3.3.5.5.4,2.9,2,4.5,4.9,4.9.2.2.3.3.5.5,0,2.6,0,5.3.1,7.9.2,2.9-.2,4.9-3.8,4.2-1.7-.3-2.4.5-2.2,2.2.1,1.1-.1,2.3,0,3.5.9,5-.9,7.3-6.1,6.4h0Z"/>
        <path class="cls-117" d="M191.9,183.4c0,5.7-2.8,8.6-8.4,8.6s-9.6-3.1-9.6-9.4,2.8-8.6,8.4-8.6c6.4,0,9.6,3.1,9.6,9.4Z"/>
        <path class="cls-117" d="M167.9,162c2.9-.4,7.1,1.4,6.1-4.4-.3-1.8,1.2-1.6,2.3-1.6,6.5,0,12.9,0,19.4,0,2.3,0,2.3,1.2,2.2,2.8-.1,1.5.6,3.7-2.2,3.2-3-.4-4.4.5-3.8,3.7.5,2.7-1.5,2.3-3.1,2.3-7,0-13.9,0-20.9,0h.1c-1.5-1.5-1.5-3.3-.7-5.2.2-.2.4-.4.6-.6Z"/>
        <path class="cls-56" d="M167.9,143.9c0,6,0,12.1,0,18.1h.1c-2.1,1.5-4.1,1.5-6.1-.1h.1c-.3-2.7,1.4-6.9-4.4-6-2.6.4-1.4-2-1.6-3.2-.3-1.6,0-3.1,2.2-2.7,3,.5,3.8-.6,3.9-3.7.1-4.5,3.9-1.4,6-2.2h-.1q0-.1,0-.1Z"/>
        <path class="cls-56" d="M210,155.9v18.1c-5.2.9-7-1.4-6.1-6.4.3-1.8.3-3.7,0-5.4-.8-5,.9-7.3,6.1-6.4h0Z"/>
        <path class="cls-117" d="M167.9,101.9c2.1,0,4.1,0,6.1.1.2.2.3.3.5.5.4,2.9,2,4.5,4.9,4.9.2.2.3.3.5.5-.2,2,1.2,5.2-.8,5.8-3.2.9-6.9.4-10.3.1-1.2,0-.8-1.6-.8-2.5,0-3.1,0-6.3,0-9.4Z"/>
        <path class="cls-56" d="M168.1,144.1c.1-2-1.2-5.3.8-5.8,3.2-.9,6.9-.6,10.3-.1,1.7.2.6,2.6.8,3.9.3,1.6-.8,1.9-2.1,1.9-3.3,0-6.6,0-9.9,0h.1q0,.1,0,.1Z"/>
        <path class="cls-56" d="M137.9,143.9v12.1h.1c-5.1,2-7.2.9-7.5-4.3-.2-2.6-.4-5.3,1.1-7.7,2.1-1.8,4.3-1.7,6.4,0h-.1c0-.1,0-.1,0-.1Z"/>
        <path class="cls-56" d="M216,131.9v6.1c-1.9-1.3-5.9,2.7-6.1-2.8-.2-5.7,4.1-2.3,6.1-3.3h0Z"/>
        <path class="cls-56" d="M192,137.9c-2-1-5.9,2.8-6.1-2.7,0-2.6.7-3.3,3.3-3.3,5.5.1,1.7,4.1,2.7,6.1h.1Z"/>
        <path class="cls-56" d="M162,126c1-2-2.8-6,2.7-6.1,2.6,0,3.3.7,3.3,3.3-.2,5.5-4.1,1.7-6.1,2.7h.1c0,.1,0,.1,0,.1Z"/>
        <path class="cls-56" d="M191.9,123.1c.6,2.6-.8,2.8-3,2.9-3,.2-2.9-1.3-3.1-3.5-.2-2.9,1.5-2.5,3.4-2.7,2.7-.2,3,1.1,2.7,3.2h0Z"/>
        <path class="cls-56" d="M191.9,143.9c-1,2,2.6,5.9-2.8,6.1-2.6,0-3.3-.8-3.2-3.3.2-5.4,4.1-1.8,6.1-2.6h-.1q0-.1,0-.1Z"/>
        <path class="cls-56" d="M197.9,197.9c-1,2,2.8,6-2.7,6.1-2.6,0-3.4-.7-3.3-3.3.2-5.5,4.1-1.7,6.1-2.7h-.1Z"/>
        <path class="cls-56" d="M186,101.9v6.1c-2,0-4.1,0-6.1-.2h.1c-1.5-1.5-1.5-3.3-.7-5.2.2-.2.4-.4.6-.6,2.1,0,4.1,0,6.1-.1h0Z"/>
        <path class="cls-117" d="M30.1,72.1c2,0,4-.1,6-.2-1,4.8.6,7.1,5.8,6.1,1.3-.2,2.7,0,4,0,2.9-.2,2,1.9,2.1,3.3.2,1.8-.1,2.9-2.3,2.7-2.2-.2-4.3,0-6.5,0-2.1-.1-3.3,0-3.3,2.8,0,2.6.8,3.3,3.4,3.3,6-.2,12-.1,17.9,0,2.1,0,3-.5,2.8-2.7-.1-1.9.2-3.8-2.7-3.3-3.1.6-3.6-1.1-3.4-3.7.2-2,0-4,0-6,0-1.6-.2-2.7-2.1-2.4-4.1.8-4.1-1.7-3.9-4.6.1-2.5,0-5,0-7.5,5,0,9.9,0,14.8.1,2.7.1,3.3-.8,3.3-3.3-.2-6.9,0-13.9-.1-20.8,3.1.2,6.8-1.2,6.4,4.8-.2,2.7,3.8.4,5.8,1.3h-.1c0,2.9,1.5,6.9-4.3,6-2.2-.3-1.5,1.7-1.6,2.8,0,4-.1,8,0,12,0,2.2-.3,3.6-2.9,3.1-.2,0-.3,0-.5,0-4.8-.2-1.7,3.6-2.7,5.3-1.3,2.2-5.3-1.3-5.8,2.5-.3,2.2-.7,4.9,3.2,4.2,2.2-.4,2.8.6,2.8,2.8-.2,4.2,0,8.3,0,12.5,0,2.2.6,3.2,2.8,2.8,3.2-.6,3.5,1.2,3.3,3.7-.2,1.8-.2,3.7,0,5.5.4,5.1-3.9,1.7-5.6,3.1-1.8,1.5,1.9,5.3-2.6,5.7-2.9.2-4.5-.4-3.9-3.7.4-2.1-.8-2.7-2.6-2.3-1.2.2-3.7-.9-3.3,1.6.9,5.8-3.3,4.1-6.2,4.5,0-.7,0-1.3,0-2,0-3.2-1-7.1.5-9.2,1.7-2.3,5.9-.7,9-.8,2.4,0,2.6-1.1,2.7-3,0-2.3-.4-3.2-3-3.2-7.7.2-15.3,0-23,.1-3.1,0-4.4-.5-4.2-4,.3-6.6.1-13.3.1-20h0Z"/>
        <path class="cls-117" d="M72,132c2,0,4.1,0,6.1,0,.2.2.4.4.6.6,1.2,3.6,1.1,7.2,0,10.7,0,.1-.2.3-.3.4-3.6,2.1-3.5,4.3.2,6.5.9,1.8.9,3.6,0,5.3-1.9,2.1-4.4,1.6-6.8,1.6s-4.2,1.1-4.8,3.8c-.2.5-.5.9-.9,1.3-1.8,1-3.5,1-5.4.2-.2-.2-.4-.4-.6-.5,1-5.3-1.4-6.7-6.5-6.2-1.8.2-5.7,2.5-5.7-2.7,0-2.1.2-3.6,2.9-3.2,2.1.3,3.3,0,3.3-2.8,0-2.7-.8-3.6-3.4-3.2-2.2.4-2.9-.6-2.8-2.8.2-2,.1-4,0-6,0-2,0-3.4,2.8-3.4,2.5,0,3.7.7,3.3,3.3-.5,2.7,1.1,2.9,3.2,2.8,2.8-.1,5.7-.4,8.5,0,5.1.8,7.3-1,6.4-6.2h-.1c0,.1,0,.1,0,.1Z"/>
        <path class="cls-117" d="M24,120.1c3.3,0,7.2.9,6.2-4.9-.3-1.7,1.6-1.1,2.6-1.2,5.1,0,10.2,0,15.3,0,0,2-.3,4,0,5.9.8,5-1,7.2-6.1,6.2-1-1-1-2.5-1.7-3.5-.5-.8-1.4-1.1-2.1-.4-.7.7-.3,1.6.4,2.1,1.1.7,2.6.7,3.5,1.7-.3,3,1.3,6.9-4.7,6.4-2.5-.2-.9,3.6-1.2,5.6h.1c-2.1,0-4.3-.2-6.4.2-5.3,1-6.7-1.4-5.8-6.1.2-.2.3-.3.5-.5,1.2-.9,3.7-.2,3.7-2.4s-2.5-1.6-3.7-2.3c-.4-.2-.8-.6-1.1-.9-.7-1.7-.8-3.4,0-5.1.2-.2.3-.4.5-.6h0Z"/>
        <path class="cls-117" d="M66.1,179.9c-2.1,0-4.1,0-6.1.1,0-4,0-8.1.1-12.1.2-.2.3-.3.5-.5,3.4-.3,4.2-3.2,5.5-5.5h-.1c3.8-2.3,7.7-1.8,11.7-.5,1.9,2.2,2.8,4.9,6,6.3,2.4,1,2,3.9.7,6.2-3.6,2.6-7.7,1.3-11.6,1.4-3.1,0-5.1,1-6,4-.2.2-.4.4-.6.6Z"/>
        <path class="cls-90" d="M132,138c-.3.6-.7,1.3-1,1.9-1.3,1.5-3.1,1.3-4.8,1.4-1.9,0-3.9,0-5.8,0h-2.5c-1.4,0-2.8,0-4.2,0-2,.1-3.9,0-5.9,0-2.6,0-5.1,0-7.7,0-3,0-6,0-9,0-1.8,0-3.5,0-5,1-1.1.1-1.9-.4-2.5-1.2-1.2-3-2.4-6-3.9-8.9-.5-1.6-.6-3.3.3-4.8,1.4-2.5.2-4.8-.3-7.2,1.4-2.3,1-4.5-.7-6.6,0-3.8-.7-7.7,1-11.4,3-1.6,1.4-4,1-6.2,0-2.4,1.2-2.8,3.2-2,1.4,1.8,1.6,4,1.4,6.2-.7,9.4,0,18.8-.1,28.2,0,3.6.6,6.6,4.6,7.7,8.1.8,16.3.4,24.4.5,2,0,4-.1,6,0,3.3.3,6.5-.7,9.8-.4.9.3,1.4.9,1.6,1.8h0Z"/>
        <path class="cls-117" d="M6,132c0-.2,0-.3,0-.5.1-3.7-1.1-8.8.8-10.8,2.3-2.4,7.4-.6,11.3-.7.2.2.3.3.5.5.3,3.4,3.2,4.2,5.5,5.5h-.1c1.6,1.9,1.6,4,0,6h.1c-6,0-12.1,0-18.1,0h0Z"/>
        <path class="cls-117" d="M72.1,131.9c-2.7,0-5.3,0-7.9.1-2.9.2-4.8-.2-4.2-3.8.5-2.8-1.7-2.3-3.2-2.2-2.8.3-2.7-1.2-2.8-3.3,0-2.1.5-3,2.8-2.8,1.8.2,3.6,0,5.5,0,1.1,0,2.3.2,3.4.3-2.6,6.4,8,4,6.5,9.7-.2.6,0,1.3,0,2h.1c0-.1,0-.1,0-.1Z"/>
        <path class="cls-117" d="M89.9,30c5.2-.9,6.8,1.4,6.2,6.4-.5,3.7-.5,7.6,0,11.4.6,5-.9,7.3-6.2,6.4v-24.1h0Z"/>
        <path class="cls-56" d="M84.1,18v6.1c-2.8,0-5.6-.2-8.4,0-2.5.1-3.8-.2-3.8-3.3s1.9-2.8,3.8-2.8c2.8,0,5.6,0,8.4,0Z"/>
        <path class="cls-56" d="M42.1,168h-12.1c.5-2-1.1-5.2,1-5.8,3.2-.9,7-.9,10.2,0,2,.6.4,3.8,1,5.8h0Z"/>
        <path class="cls-56" d="M12.1,156c-5.1.9-6.9-1.2-6.1-6.3.3-1.9,0-3.9,0-5.9,5.1-.9,6.9,1.2,6.1,6.3-.3,1.9,0,3.9,0,5.9Z"/>
        <path class="cls-1" d="M83.9,84c3.6-2.9,7.8-2.2,11.9-2.3.7.8,1.4,1.6,2.2,2.3-2.4,2.5-5.9.6-8.6,2-2.1,1-3.4,2.5-3.7,4.8-.2,1.2,0,2.9-2.2,2.4-1.7-.6-2.6-1.5-1.7-3.4-.7-2.4,1.2-3.9,2-5.7h0Z"/>
        <path class="cls-85" d="M80,120.2c2.8,1.8,2.7,4.7,1.5,6.8-.9,1.6-.7,3.3-1.5,4.8-.7.7-1.3.8-2.1.1h.2v-12c.2-.1.3-.2.5-.3.6-.1,1.2,0,1.4.6h0Z"/>
        <path class="cls-56" d="M83.9,24c5-.9,7,1.2,6.1,6.1-5,.9-7-1.2-6.1-6.1Z"/>
        <path class="cls-56" d="M66.1,36.1h-6.1c1-2.1-2.4-6.3,3.3-6.1,5.5.2,1.6,4.3,2.8,6.1Z"/>
        <path class="cls-56" d="M60.1,36c-1,2.1,2.4,6.3-3.3,6.1-5.5-.2-1.6-4.3-2.8-6.1h6.1,0Z"/>
        <path class="cls-56" d="M78.1,42.1c1-2-2.8-6,2.7-6.1,2.6,0,3.3.7,3.3,3.3-.2,5.5-4.1,1.7-6.1,2.7h.1c0,.1,0,.1,0,.1Z"/>
        <path class="cls-56" d="M90.1,54v6.1c-2.1-1-6.3,2.4-6.1-3.3.2-5.5,4.3-1.5,6.1-2.8h0Z"/>
        <path class="cls-56" d="M36.1,144c0-2.1.1-4.2.2-6.3,0,0-.1.2-.1.1,1.8,1.2,5.3-2.2,5.9,2.2.8,5.9-3.5,3.5-6.1,3.8h.1Z"/>
        <path class="cls-56" d="M78.1,119.9c-2-.8-5.4,2.2-6.1-2.2-.8-5.9,3.6-3.2,6.1-3.7.2.2.4.4.5.6.8,1.9.8,3.7-.7,5.4,0,0,.2-.1.1-.1Z"/>
        <path class="cls-56" d="M36,143.9c0,2,0,4.1,0,6.1h.1c-2.5-.6-6.9,2.1-6.1-3.8.6-4.5,4.1-1.4,6.1-2.2h-.1c0-.1,0-.1,0-.1Z"/>
        <path class="cls-56" d="M18.3,156.2c.6-2.1-2.9-5.9,2.3-6.2,1.8-.1,3.3-.4,3.5,2.5.3,5.6-3.8,2.7-6,3.6h.1c0,.1,0,.1,0,.1Z"/>
        <path class="cls-56" d="M36,150c2.2.8,6.4-2.4,6.1,3.3,0,2.2-.7,2.9-2.8,2.7-1.9-.1-3.7.2-3.3-2.7.2-1.1,0-2.3,0-3.4h-.1Z"/>
        <path class="cls-56" d="M18.1,162h-6.1v-6.1c2.1.1,4.2.2,6.3.3,0,0-.1-.1-.1-.1,0,2,0,4,0,5.9h0Z"/>
        <path class="cls-56" d="M24.1,168h-6.1v-6.1c5-.9,7,1.2,6.1,6.1h0Z"/>
        <path class="cls-56" d="M60.1,167.9c-2-1-5.9,2.8-6.1-2.7-.2-5.7,3.9-2.4,6.1-3.2h-.1c1.7,1.9,1.7,3.9,0,6h.1Z"/>
        <path class="cls-119" d="M81.9,89.7c-.1,1.7,1.4,2.3,2.2,3.4.2.2.2.4.2.6s-.1.3-.2.3c-1.4,0-2.4.6-3,1.9-2.2.5-2.9-.2-3.1-2.6-.4-3.6,1.9-3.3,4-3.6Z"/>
        <path class="cls-56" d="M80,102.2c.6,3.9-.9,7.8,0,11.6-.7.7-1.3.8-2.1.1v.2c.1-3.2,0-6.5,0-9.7,0-1.4,0-2.7,2-2.2h0Z"/>
        <path class="cls-56" d="M161.9,60.1c.1-3.9-1.1-9.2.9-11.3,2-2,7.4-.7,11.3-.9v6.1c-.1,0,0-.1,0-.1-3.1.2-6.8-1.1-6.4,4.8.2,2.7-3.8.4-5.8,1.3h0Z"/>
        <path class="cls-56" d="M191.9,54c5.1-.9,6.9,1.2,6.1,6.3-.3,1.9,0,3.9,0,5.9-2.8,0-5.6,0-8.4,0-1.9,0-3.9.5-3.8-2.8.1-2.5.6-3.4,3.3-3.3,5.5.3,1.7-4,2.7-6h0Z"/>
        <path class="cls-56" d="M174,96.1h-6.1c0-2.8.2-5.6,0-8.4-.1-2.5.1-3.8,3.3-3.8,3.3,0,2.8,1.9,2.8,3.8,0,2.8,0,5.6,0,8.4h0Z"/>
        <path class="cls-56" d="M216,59.9v6.1h-12.1c-.9-5.1,1.2-6.9,6.3-6.1,1.9.3,3.9,0,5.9,0h0Z"/>
        <path class="cls-56" d="M173.9,54.1c2,1,6-2.8,6.1,2.7,0,2.6-.7,3.3-3.3,3.3-5.5-.2-1.7-4.2-2.7-6.1h-.1Z"/>
        <path class="cls-56" d="M162,66.1h-6.1v-6.1h6.1v6.1Z"/>
        <path class="cls-13" d="M161.9,72.1v-6.1c1.9,1.3,5.9-2.7,6.1,2.8.2,5.7-4.1,2.3-6.1,3.3Z"/>
        <path class="cls-56" d="M197.9,65.9h6.1c-1,2.1,2.4,6.3-3.3,6.1-5.5-.2-1.6-4.3-2.8-6.1h0Z"/>
        <path class="cls-56" d="M203.9,81c.6,2.9-.9,2.9-3,3.1-3.1.3-2.8-1.5-3-3.5-.2-2.9,1.6-2.4,3.4-2.6,2.7-.3,3,1.1,2.6,3h0Z"/>
        <path class="cls-56" d="M180,95.9c0,2.1,0,4.1-.1,6.1h.1c-2.1,1.5-4.1,1.5-6.1-.1h.1c0-1.9-.1-3.9-.1-6h6.1Z"/>
        <path class="cls-56" d="M143.9,42c5.1,1.1,7.1-.9,6-6,2,.5,5.2-1.1,5.8,1,.9,3.2.4,6.9.1,10.3,0,1.2-1.6.8-2.5.8-3.1,0-6.2,0-9.4,0v-6.1Z"/>
        <path class="cls-56" d="M149.9,6.1c2.2.8,6.3-2.5,6.1,3.2-.2,5.4-4.1,1.7-6.1,2.7h.1v-6h-.1c0,.1,0,.1,0,.1Z"/>
        <path class="cls-56" d="M149.9,12c-1,2,2.8,6-2.7,6.1-2.6,0-3.4-.6-3.3-3.3.2-5.5,4.2-1.7,6.1-2.7h-.1c0-.1,0-.1,0-.1Z"/>
        <path class="cls-56" d="M156,60.1h-6.1c1.3-1.9-2.7-5.9,2.8-6.1,5.7-.2,2.3,4.1,3.3,6.1Z"/>
        <path class="cls-117" d="M6.3,21.5c0-5-2-11.7.5-14.4,2.8-3.2,9.7-.8,14.8-1,4.6-.1,10.9-1.7,13.5.7,3,2.7.9,9.1.9,13.8,0,5.1,2.3,11.9-1,14.7-2.8,2.5-9.5.7-14.5.7-4.6,0-10.9,1.6-13.5-.7-3.1-2.7-.4-9.1-.7-13.8h0Z"/>
        <path class="cls-117" d="M201,6.3c4.8,0,11.3-1.9,14,.5,3.1,2.8.8,9.4.9,14.3.1,4.8,1.8,11.2-.7,14-2.8,3.1-9.4.9-14.3.9s-11.5,2.2-14.3-.9c-2.4-2.7-.7-9.2-.7-14,0-4.8-1.7-11.2.7-14,2.8-3.2,9.4-.5,14.3-.8h0Z"/>
        <path class="cls-117" d="M21.3,185.9c4,0,8,.1,12,0,2.2,0,2.8.6,2.8,2.8-.1,8.2-.1,16.3,0,24.5,0,2.2-.6,2.8-2.8,2.8-8.2-.1-16.3-.1-24.5,0-2.2,0-2.8-.6-2.8-2.8.1-8.2.1-16.3,0-24.5,0-2.2.6-2.9,2.8-2.8,4.2.2,8.3,0,12.5,0h0Z"/>
        <path class="cls-56" d="M18.1,120.1c0-3.3.9-7.3-4.9-6.1-1.1.2-1.2-.8-1.2-1.7,0-1.3.2-2.7,0-3.9-.9-5,.9-7.3,6.1-6.3,0,2.9-1.6,7,4.2,6.1,2.2-.3,1.7,1.5,1.7,2.7,0,3.1,0,6.2,0,9.4v-.2c-1.9,1.7-4,1.7-6,0h.1c0,.1,0,.1,0,.1Z"/>
        <path class="cls-117" d="M35.4,108c-1.5-.3-3.7.8-4.9-.5-.8-.8-.5-2.8-.4-4.2,0-1.8,1.6-1.2,2.6-1.2,1.8,0,3.6,0,5.4,0,2.1,0,4-.5,4,3,0,3.6-2,3-4.1,3h-2.7Z"/>
        <path class="cls-56" d="M18,102.1v-6.1c2.1,1,6.3-2.4,6.1,3.3-.2,5.5-4.3,1.6-6.1,2.8h0Z"/>
        <path class="cls-56" d="M95.9,179.9c0,2.6,0,5.3.1,7.9.2,2.9-.2,4.8-3.8,4.2-1.2-.2-2.5,0-2.2,1.7.9,4.7-2.1,4.5-5.2,4.3-2.3-.1-4.6,0-6.9,0,0-2,0-4.1.1-6.1.2-.2.3-.3.5-.5,2-.8,4-1.4,4.5-4,.2-1,.8-2,1.8-2.1,3.4-.3,3.7-3.3,5-5.4,1.7-1.2,3.5-1.2,5.4-.4.2.2.4.4.6.6h0Z"/>
        <path class="cls-56" d="M66,186c0-2.1,0-4.1.1-6.1h-.1c4.2-2,10.1-2.1,12.1,0,2.1,2.1,2,7.9-.2,12.1h.1c-3.3,0-6.7,1-6.4-4.8.1-2.6-3.8-.7-5.8-1.2h0Z"/>
        <path class="cls-56" d="M60,185.9h6.1c-1,2.1,2.4,6.3-3.3,6.1-5.5-.2-1.5-4.3-2.8-6.1h0Z"/>
        <path class="cls-56" d="M30.1,60.1h-6.1c1-2.1-2.4-6.3,3.3-6.1,5.5.2,1.5,4.3,2.8,6.1h0Z"/>
        <path class="cls-56" d="M36.1,66.1c-2,0-4-.1-6-.2,0-2,0-4-.1-6h6.1v6.1h0Z"/>
        <path class="cls-117" d="M107,186.1c-2.9,0-5.3.2-5.2-4.4,0-3.6-3.9-.8-5.8-1.8h.2c-2.1-2.9-1-4.7,1.6-7.4,4-4.1,7.9-7.4,15.1-6.1-6.7-6.9-8.1-15.3-4.8-22.7,2-1.3,4-1.3,6,0,1.3,1.4,1.6,3.3,1.4,5.1-.3,4.3,1.7,5.6,5.8,5.8,5.9.2,6.9,2.2,4.7,7.4h.1c-6.7,3.8-6.7,8.1,0,12h-.1c1.7,1.9,1.7,3.9,0,6h.2c-2.6-.1-5.3-.2-7.9,0-2.9.2-4.8-.3-4.2-3.8.5-2.8-1.7-2.1-3.2-2.2-1.6-.1-2.7,0-2.8,2.2-.2,3.3,1.2,6.8-.9,9.9h0Z"/>
        <path class="cls-56" d="M132.1,204h-6.1c-.9-5,1.2-7,6.1-6.1v6.1h0Z"/>
        <path class="cls-13" d="M36,72.1v-6.1c1.9,1.3,5.9-2.7,6.1,2.8.2,5.7-4,2.3-6.1,3.3Z"/>
        <path class="cls-56" d="M57,48.1c2.3-.5,3.2.4,3.1,2.8,0,2-.1,3.3-2.8,3.2-2.4,0-3.5-.5-3.4-3.2,0-2.3.7-3.3,3.1-2.8h0Z"/>
        <path class="cls-59" d="M136.1,88c2.1,1,1.8,3,1.8,4.7,0,11.9,0,23.8,0,35.7,0,2.9.5,6.6-3.8,7.5-1.8-.2-3.1-1.5-4.5-2.4-1.1-.7-2.3-1.3-3.4-1.9-.6-.4-1.1-.8-1.5-1.3-.6-.7-1-1.5-.8-2.5.5-.8,1.2-1.3,2.2-1.2.4.2.8.4,1.1.7,1,1.3,2.5,1.4,4,1.6,2.5.6,2.9-1,2.7-2.8-1.1-8.9,1.4-17.7,1.2-26.6-.1-3.9-2-7.3-1.6-11.2,0-.5.3-.9.5-1.3,1.2-.8,1.7.3,2.4.9h0Z"/>
        <path class="cls-115" d="M143,125.8c7.6.4,7.5.4,7.1,9.4-.1,2.1-.6,2.9-2.8,2.8-3.1-.2-6.2,0-9.4,0,3-3.4,2.6-7.5,2.2-11.6.7-1.6,1.8-.9,2.8-.6h0Z"/>
        <path class="cls-56" d="M150,95.9v6.1c-2.4,0-4.7-.2-7.1-.2-3.2-3.7-1.8-7.8-1-11.8.6-2.4-1.9-3.7-2-5.8,1.4,0,2.7-.2,4.1-.2,0,2.1.3,4.3-.1,6.4-1,5.4,1.6,6.4,6.1,5.6h0Z"/>
        <path class="cls-76" d="M88.2,85.1c3.1-2.3,6.6-.5,9.9-1.2,6,0,12,0,18,0,6,.7,12.1-1.1,18.1,1-.4.7-1.1,1.1-1.8,1.3-1.8.7-3.5.4-5.3.2-2.1,0-4.3,0-6.4,0-1.8,0-3.5,0-5.2,0-7.2,0-14.4.3-21.6,0-1.9,0-4,.2-5.6-1.4h0Z"/>
        <path class="cls-54" d="M138.1,144c-2,0-4-.1-6-.1-.2-.1-.3-.3-.5-.4-.3-.6-.4-1.2-.4-1.9.1-.7.4-1.2,1.1-1.4,2.5.8,3.4-2.6,5.8-2.2,0,2,0,4.1,0,6.1h0Z"/>
        <path class="cls-83" d="M143,125.8c-.9.2-1.9.4-2.8.6v-12.8c.6.2,1.2.4,1.9.6,1.1,3.8-.7,7.9,1,11.7h0Z"/>
        <path class="cls-100" d="M142,90c.5,3.9-.2,7.9,1,11.8-.9.2-1.9.4-2.8.6,0-3.5.2-7.1.2-10.6,0-1.3.6-1.7,1.7-1.8h0Z"/>
        <path class="cls-47" d="M130,133c1.5.8,3.3,1.1,4,3-.7.7-1.3,1.4-2,2-.3-.3-.7-.7-1-1-1.6-1-2.4-2.2-1-4h0Z"/>
        <path class="cls-37" d="M132.3,140.2c-.1.6-.3,1.2-.4,1.8-1.7,1.5-3.6,1.4-5.6.5-.8-.6-.9-1.4-.6-2.3,1.8,0,3.5-.2,5.3-.3.4,0,.9.1,1.3.2h0Z"/>
        <path class="cls-27" d="M132.1,85.1c.6,0,1.3-.1,2-.2,1.3.6,1.9,1.7,2.1,3.1-.7-.3-1.4-.7-2.1-1-1.1-.2-2.4-.1-1.9-1.9h0Z"/>
        <path class="cls-56" d="M144,36v6.1c-5,.9-7-1.2-6.1-6.1h6.1Z"/>
        <path class="cls-10" d="M125.9,162c.8-4.6-.4-7.2-5.7-6.1-5,1-7.1-.9-6.3-6.1.3-1.9,0-3.9,0-5.9.2-.2.4-.3.6-.5,1.7-.8,3.4-.7,5.1,0,.4.2.8.6,1,1,.8,1.3,0,3.8,2.3,3.9,2.3,0,1.6-2.5,2.4-3.8.2-.4.6-.8,1-1.1,1.5-.6,3-.4,4.5-.2.5.2.9.5,1.2.9h0c0,2,.3,4.2,0,6.2-1,5.4,1.6,6.4,6.1,5.6.9,5.1-1.2,6.9-6.3,6.1-1.9-.3-3.9,0-5.9,0h0Z"/>
        <path class="cls-10" d="M126.1,174c-2-.5-5.2,1.1-5.8-.9-.9-3.2-.9-7,0-10.2.6-2,3.8-.4,5.8-.9v12.1h0Z"/>
        <path class="cls-75" d="M143.9,167.9c-1,2,2.6,5.9-2.8,6.1-2.6,0-3.3-.8-3.2-3.3.2-5.4,4.1-1.8,6.1-2.6h-.1Z"/>
        <path class="cls-75" d="M125.9,180v-6.1c1.9,1.3,5.9-2.6,6.1,2.8.2,5.7-4.1,2.3-6.1,3.3h0Z"/>
        <path class="cls-75" d="M144,185.9c-2-1-6,2.8-6.1-2.7,0-2.6.7-3.3,3.3-3.3,5.5.1,1.7,4.1,2.7,6.1h.1c0-.1,0-.1,0-.1Z"/>
        <path class="cls-75" d="M161.9,161.9h6.1v6.1c-5,.9-7-1.2-6.1-6.1Z"/>
        <path class="cls-75" d="M185.9,183c.5,2.4-.5,3-2.9,3.1-2.8.1-3.1-1-3.2-3.4-.1-2.7,1.2-2.7,3.2-2.8,2.5-.1,3.3.8,2.8,3.1h0Z"/>
        <path class="cls-75" d="M173.9,101.9h6.1v6.1c-5,.9-7-1.2-6.1-6.1h0Z"/>
        <path class="cls-10" d="M108,143.9c0,4.3.1,8.6,0,12.9-.1,3.2-.4,5.9,4.4,5.2,2.6-.4,1.5,2,1.6,3.2.1,1.2.5,2.8-1.7,2.7-1.8,0-3.7,0-5.5,0-3.1-.2-5.8-.2-4.8,4.2.2,1.1-.3,2-1.6,1.8-5.8-1-4.3,3.1-4.3,6.1-2.1,0-4.1-.1-6.1-.1-.2-.2-.3-.3-.5-.5-.4-2.9-2-4.5-4.9-4.9-.2-.2-.3-.3-.5-.5-.2-3.1,1.1-6.8-4.8-6.4-2.5.2-.7-3.8-1.2-5.8.2-.2.3-.3.5-.5,1.2-.9,3.7-.2,3.7-2.4s-2.5-1.5-3.7-2.4c-.2-.2-.3-.3-.5-.5v-6.1c.2-.2.4-.3.5-.5,1.3-.7,2.8-.9,4.2-.7,4.4.5,6.3-1.3,5.9-5.7.1-.8.4-1.5,1-2.1,2.1-.5,4.1-.5,6.2,0,.4.2.8.5,1.2.9,2.8,2,6,.5,8.9,1.2.5.1.9.3,1.4.5.2.2.3.4.5.5h0Z"/>
        <path class="cls-10" d="M78.1,161.9c-4.1,0-8.1,0-12.1.1-.9-5.1,1.2-6.9,6.3-6.1,1.9.3,3.9,0,5.9.1h-.1c1.7,1.9,1.7,3.9,0,6h.1Z"/>
        <path class="cls-30" d="M78,131.9c.7,0,1.4,0,2.1-.1,2.9,2.4,3.8,5.7,4.2,9.2,1,5.4-2.5,4.1-5.4,3.6-.2-.2-.4-.4-.7-.6,0-4-.1-8.1-.2-12.1h0Z"/>
        <path class="cls-75" d="M78.1,149.9c-2.5-.5-6.9,2.2-6.1-3.7.6-4.4,4.1-1.3,6.1-2.2h-.2c1.7,1.9,1.7,4,0,6h.1c0-.1,0-.1,0-.1Z"/>
        <path class="cls-75" d="M60,168v-6.1h6.1c.9,5-1.2,7-6.1,6.1Z"/>
        <path class="cls-75" d="M18,119.9h6.1v6.1c-5,.9-7-1.2-6.1-6.1Z"/>
        <path class="cls-75" d="M42.1,125.9c-2-.9-5.9,2.7-6.1-2.7,0-2.6.7-3.3,3.2-3.3,5.5.2,1.7,4.1,2.7,6.1h.1c0-.1,0-.1,0-.1Z"/>
        <path class="cls-75" d="M24,132v-6.1c1.9,1.3,5.9-2.7,6.1,2.8.2,5.7-4,2.3-6.1,3.3Z"/>
        <path class="cls-10" d="M78,192c.2-8.2-3.8-12.2-12-12-.9-5.2,1.3-6.8,6.3-6.1,3.9.5,7.9.1,11.8.2h-.2c1.2,2.7,3.2,4.8,6.1,6h-.1c.2,3.2,1.1,7.1-4.7,6-.7-.1-1.3.4-1.2,1.2,1.2,5.8-2.9,4.8-6.1,4.8h0Z"/>
        <path class="cls-99" d="M88.2,85.1c9.3,0,18.6,0,27.8,0,1.2,1.2,3.9,2,1.4,4.4-3.5-.2-7-2.2-10.5.2-.6.4-1.1.7-1.7,1-1.9,1-3.9,1.7-5.6,3.1-1.6,1.2-2.4,2.8-2.9,4.7-.6,1.7-.4,3.5-.4,5.3,0,.5,0,.9,0,1.4-1.3,3.2,1.2,6.3.6,9.5-.4,1.7-2.5,3.2-.5,5.1.6.6,1,1.3,1.4,2.1.6,1.3,1.2,2.6,2.1,3.8.7.8,1.5,1.6,1.8,2.7.1.7,0,1.3-.4,1.9-1,.9-2.2,1.5-3.1,2.6-2.6,2.4-4.9,5.4-9.1,4.3-4.3-1.1-4.7-4.6-4.7-8.1,0-11.6-.1-23.3-.2-34.9,0-.3,0-.6,0-.9.9-2.9.1-6.7,4.1-8h0Z"/>
        <path class="cls-8" d="M78,150v-6.1c2.3-.6,6.1,2.1,6.3-2.9.6.3,1.2.7,1.8,1,1.7-1.3,2.8-.1,3.8,1,0,1.3,0,2.6.2,3.9.4,2.8-.9,3.2-3.3,3.1-2.9-.1-5.9,0-8.8,0h0Z"/>
        <path class="cls-95" d="M124,128c.3.7.7,1.4,1,2,.6,1.6-.6,2.4-1.4,3.5-1.3,1.2-1.3,3.1-2.7,4.3h-6c-.6-.5-.6-1.1-.4-1.9.8-1.6,2.3-2.8,2.8-4.6.8-2.3,1.2-4.8,3.8-5.8,1.8-.2,3.1.2,2.9,2.4h0Z"/>
        <path class="cls-86" d="M115,136.2c0,.6,0,1.1,0,1.7-8.7,0-17.4,1-26-.8,3.9-.1,5.8-3.7,9-5.1,1-.6,1.7,0,2.4.7.8,1.3,1.2,3,3.2,3,.7,0,1.4,0,2.1,0,1.7,0,3.3,0,5,0,1.4.1,3-.6,4.3.5h0Z"/>
        <path class="cls-41" d="M121,137.8c0-1.9-.2-3.9,2-4.8,1.6.2,2.2-1,3-2,1.6.2,3,.7,4,2-.2,1.4.3,2.7,1,4-3.3.4-6.6,1.5-10,.8h0Z"/>
        <path class="cls-113" d="M78,113.9c.7,0,1.4,0,2.1-.1,2.7,2.1,2.7,4.3,0,6.4-.7,0-1.4,0-2.1-.1v-6.1h0Z"/>
        <path class="cls-29" d="M114,143.9h-6,0c-.5-.3-.9-.9-.9-1.6,0-.5,0-.9.2-1.4.2-.4.6-.7,1-.8h5.3c1.3.5,1.3,1.5,1.2,2.6-.2.5-.5.9-.8,1.3h0c0-.1,0-.1,0-.1Z"/>
        <path class="cls-60" d="M125.7,140.2c.2.6.3,1.2.5,1.8.2.3.4.7.4,1.1-.1.4-.3.7-.7.9h.1c-2,1.5-4.1,1.5-6.1-.1h.1c-.3-.2-.6-.6-.8-1-.1-.4-.2-.9-.1-1.4.1-.7.4-1.3,1.2-1.4h5.3Z"/>
        <path class="cls-22" d="M96.2,142c-1.7-2.5-4-1.3-6.2-1-.3-.2-.4-.5-.3-.7,0-.2.2-.4.2-.4l10,.2c.6.7,2.1,0,2.3,1.5-.1.5-.4.9-.9,1.1-1.8.3-3.6.7-5.2-.7h0Z"/>
        <path class="cls-107" d="M119.8,142v1c-1.9.7-3.8.7-5.6,0-.2-.9-.4-1.9-.6-2.8,1.4,0,2.9,0,4.4-.1.5,1.5-1.2,1-1.5,1.7,1.1-.5,2.3-.9,3.3.2h0Z"/>
        <path class="cls-14" d="M90,139.9c0,.4,0,.7,0,1.1,0,.7,0,1.4-.2,2.1-1.3-.3-2.6-.7-3.8-1,.3-2.7,2.4-1.8,4-2.1Z"/>
        <path class="cls-20" d="M102,141c-.7-.3-1.3-.6-2-.9,2.8,0,5.6,0,8.3.1,0,.3-.2.6-.4.8-2,1.6-3.9,1.5-5.9,0h0Z"/>
        <path class="cls-45" d="M119.8,142h-4.5c1.2-.9,1.9-1.4,2.7-1.9.8,0,1.6,0,2.3.1-.2.6-.3,1.2-.5,1.8Z"/>
        <path class="cls-10" d="M21.4,30c-6.3,0-9.4-3.2-9.4-9.6s2.9-8.4,8.6-8.4,9.4,3.2,9.4,9.6-2.9,8.4-8.6,8.4h0Z"/>
        <path class="cls-10" d="M201.3,12.1c5.8,0,8.6,3,8.6,8.9s-3.1,9.1-9.4,9.1-8.6-2.9-8.6-8.9,3.1-9.1,9.4-9.1Z"/>
        <path class="cls-10" d="M30.1,200.6c0,6.2-3,9.4-9.1,9.4s-8.9-2.9-8.9-8.6c0-6.2,3-9.4,9.1-9.4,5.9,0,8.9,2.9,8.8,8.6Z"/>
        <path class="cls-73" d="M126,128v-1c.9-9.1.5-18.2.6-27.4,0-2.9-.3-5.6-1.8-8.2-.4-1.7.1-3,1.4-4,2.7-.8,5.3-1,7.8.6,2.6,7.1,2.8,14.5,1.7,21.7-.9,5.7-.8,11.2-.6,16.8.1,4.3-.9,5.9-5.1,3.5-1-1.3-2.9-.9-4-2h0Z"/>
        <path class="cls-80" d="M125,91c2.4.8,3.1,2.5,3,4.9-.1,8.8-.1,17.5,0,26.3,0,2-.6,3.5-2.1,4.7-.7.3-1.3.7-2,1-.6-1.3-1.6-1.9-3-2l-.6-.6c-.6-4.2-.2-8.2,1.2-12.2,2.3-.4,2.1-2.4,2.3-4,.2-1.8-.2-3.6-.2-5.4,0-.7,0-1.4,0-2.1.5-3.2-3.2-5.4-2.2-8.7.9-1.2,1.7-2.5,3.5-2.1h0Z"/>
        <path class="cls-114" d="M134,88h-8c-1.9,2.8-5.4,1.8-7.8,3.3-.8,0-1.3-.3-1.6-1,0-.5,0-.9.4-1.3,2.2-1.9-1.8-2.4-.9-4,1.7,0,3.3,0,5,0,2.3.8,4.6.8,7,0,1.4.9,2.7.8,4.1,0,.6.6,1.3,1.2,1.9,1.9v1h0Z"/>
        <path class="cls-12" d="M126,131c-.2.9.9,2,0,2.7-1,.7-2.2.4-3-.7.7-1,1.3-2,2-3,.3.3.7.6,1,1h0Z"/>
        <path class="cls-80" d="M126,128c1.6.2,3.7-.7,4,2-1.7.1-3.2-.2-4-2Z"/>
        <path class="cls-59" d="M128,85c-2.3,1.5-4.6,1.5-7,0h7Z"/>
        <path class="cls-58" d="M126.2,143v-1h5.6c0,.7.1,1.4.2,2.1-.4,0-.7-.1-1.1-.2-1.5-.9-3.3.3-4.8-.8h0Z"/>
        <path class="cls-13" d="M119.9,143.9h6.1c-1,2.1,2.4,6.3-3.3,6.1-5.4-.2-1.6-4.2-2.8-6.1h0Z"/>
        <path class="cls-65" d="M114.2,143h5.6c0,.4.2.7.2,1.1h-6.1c0-.4.2-.7.2-1.1Z"/>
        <path class="cls-69" d="M126.2,143c1.6.2,3.4-.6,4.8.8-1.7,0-3.3.1-5,.2,0-.4.2-.7.3-1.1h0Z"/>
        <path class="cls-56" d="M90,161.7c.6-2.1-2-6.5,3.9-5.8,1.8.2,2.2.7,2.2,2.4,0,1.8,0,3.6,0,5.4,0,2.1.9,4.5-3.1,4.4-4.2,0-2.6-2.7-2.9-4.6,0-.5,0-1,0-1.8h0Z"/>
        <path class="cls-56" d="M78,162v-6.1c1.9,1.3,5.9-2.6,6.1,2.8.2,5.7-4.1,2.3-6.1,3.3h0Z"/>
        <path class="cls-56" d="M90.1,180c-5,.9-7-1.2-6.1-6.1,4.9-.9,7,1.2,6.1,6.1Z"/>
        <path class="cls-23" d="M96.2,142c1.9,0,3.9,0,5.8,0,1.9-.7,3.9-.8,5.8,0l.2,2.1c-.4,0-.7-.1-1.1-.2-3.5-1-7.3.4-10.8-.8,0-.3,0-.7,0-1h0Z"/>
        <path class="cls-6" d="M96.2,143c3.6.4,7.3-1,10.8.8-3.6-.2-7.3,1.2-10.8-.8Z"/>
        <path class="cls-50" d="M95,91c-2.4,1.9-3.1,4.4-3.1,7.4.1,9.4,0,18.9,0,28.4,0,1.2.2,2.4-.2,3.5-.5,1.6-1.5,3.5-3.3,2.8-1.8-.7-3.6-2.5-1.8-4.7,1.5-1.8,1.2-3.7,1.2-5.6,0-9.6.3-19.2,0-28.9-.2-4.9,1.4-6.7,6.1-5.9.5.9,1.6,1.7,1,3h0Z"/>
        <path class="cls-84" d="M95,104.9c0-.3,0-.6,0-.9,1.6-1.5.6-3.6,1.3-5.2.6-1.3,1.4-2.5,3.2-2.3,2.9,1.9,1.8,5.9,4.4,8,.3.6.5,1.3,0,1.9-1.4.9-3.2.8-4.7,1.3-.7.2-1.4.2-2.2,0-1.5-.3-1.2-2-2-2.8h0Z"/>
        <path class="cls-105" d="M95,104.9c.7.7,1.4,1.4,2.1,2.1.5.5,1.1,1,1.3,1.7,0,.3.1.7,0,1.1,0,.5-.2,1-.3,1.5,0,.5,0,1,0,1.5.2.5.4,1,.6,1.5.1.4.2.8.2,1.2,0,.8,0,1.7-.2,2.5-.3,1.5.2,3.3-1.8,4-.3-.7-.6-1.4-.9-2-1.4-1.6-1-3.3-.1-5,.3-3.4-2.8-6.5-1-10.1h0Z"/>
        <path class="cls-111" d="M97,122c1.3-1.1.2-2.8,1-4,.3-.3.7-.6,1.1-.7.7,0,1.3,0,1.8.4.6,1-.3,1.8-.2,2.7.2.8.9,1,1.5,1.3.5.4.9.8,1,1.5,0,1-.5,1.6-1.3,2.1-1,.4-2.1.4-3.1.7-1.2-1.1-1.7-2.5-2-4h0Z"/>
        <path class="cls-11" d="M103.1,136.8c-2.8.1-3.1-1.6-3-3.8-.2-1.1,0-2.1.8-3,0-.6,0-1.2,0-1.9.3-.4.8-.5,1.3-.4.9.5,1.3,1.3,1.3,2.4-.7,2.2,1.2,4.6-.4,6.7h0Z"/>
        <path class="cls-78" d="M98.9,92.8c1.9-1.3,3.6-2.8,6-3.1.4.3.6.7.6,1.2-.3,1.9-2,2.6-3.2,3.7-.8.6-1.8,1-2.8.7-1.1-.6-1.2-1.5-.6-2.5Z"/>
        <path class="cls-81" d="M98.9,92.8c.1.9.3,1.8,1.3,2.3.4.7.4,1.3-.2,1.9-1.4,0-2.3.8-3,2-1.1.2-1.6,0-1.2-1.3-.1-2.4,1.3-3.8,3.1-4.9h0Z"/>
        <path class="cls-110" d="M116.9,89c0,.3,0,.7,0,1-3.5.4-6.9-.3-10.4-.6-.2-.2-.3-.4-.5-.6,3.7-2.8,7.3-1.9,11,.1Z"/>
        <path class="cls-3" d="M95.8,97.7c.4.4.8.9,1.2,1.3-.4,1.8,1.4,4.4-2,5,.2-2.1-.6-4.3.7-6.3Z"/>
        <path class="cls-57" d="M101.9,128c-.3,0-.7,0-1.1.1-.6-.7-1.3-1.4-1.9-2.1.3-2.5,1.6-1.8,3-1,.9,1,.9,2,0,3Z"/>
        <path class="cls-61" d="M95.9,115c0,1.7,0,3.3.1,5-2.9-.6-2.9-1.8-.1-5Z"/>
        <path class="cls-31" d="M105,91c0-.4,0-.8,0-1.3.3-.3.7-.6,1-.9l.2.4c1.8.6,3.5-.2,5.2,0,1,0,3.4-.4,2.3,2.2-3,1.3-5.9,1.6-8.7-.4h0Z"/>
        <path class="cls-21" d="M100.9,130c0,1.1.5,2.3-.8,3-.7-.3-1.4-.7-2.1-1,0-2,1.5-2,2.9-2Z"/>
        <path class="cls-7" d="M95,91c-.3-1-.7-2-1-3,1.2.3,2.4.7,3.6,1-.4,1.3-1.7,1.4-2.6,2Z"/>
        <path class="cls-24" d="M121,126c-1.8,1.6-1.7,4.1-3,5.9-3.2,1.7-6.5,1.9-9.8.5-.7-2.8,1.9-2.2,3.1-3.1.4-.2.9-.3,1.4-.4,3.4-.5,4.1-2.8,3.6-5.8.5-1.2-.3-2.8,1.3-3.6,4.3.5,2.1,4.4,3.3,6.4h.2Z"/>
        <path class="cls-109" d="M108.1,131.8c3.3,0,6.6.1,9.9.1,0,2.2-1.4,3.2-3,4.2-1.3.4-2.5,1.4-4,.7-.3-.3-.6-.6-.9-.9-.7-1.4-2.1-1.9-3.2-2.8-.2-.4-.2-.8,0-1.3.4-.3.8-.3,1.2-.1h0Z"/>
        <path class="cls-53" d="M107,132.1c0,.3,0,.5,0,.8.8,1.7,3,1.6,4,3v.9c-2,0-4,0-6,0-1.7-1.9-3.4-3.7-1.2-6.3,1.4-.2,2.6.3,3.2,1.7h0Z"/>
        <path class="cls-64" d="M104,130.9c-1.5,2.3.5,3.9,1,5.9-.7,0-1.3,0-1.9,0,.4-2.3-2.5-4.6,0-6.9.8,0,1.2.2.9,1.1h0Z"/>
        <path class="cls-103" d="M107.8,142c-1.9,0-3.9,0-5.8,0v-1c2,0,3.9,0,5.9,0,0,.3,0,.7,0,1Z"/>
        <path class="cls-94" d="M118,90.6c2.1-2.5,5.5-1.1,8-2.6-.3,1-.7,2-1,3-1,.7-1.5,2.2-3.1,2-2.5,1-3.5-.3-3.9-2.5h0Z"/>
        <path class="cls-78" d="M118,90.6c1.3.8,2,2.6,3.9,2.5.2,3.3,4,5.3,3,8.9-2.8,0-3-3.5-5.4-4-1.3-.8-2.4-1.8-3.3-3.1-.7-1.1-1.7-1.8-2.5-2.8-.2-.4,0-.8.3-1.1-2.2-2.3-5.5.2-7.9-1.7,3.7-1.2,7.3-1.1,10.7.8.4.2.8.3,1.1.5h0Z"/>
        <path class="cls-101" d="M120.9,126c-1.7-1.7-.2-5.5-3.8-6-1.6,0-2.7-.6-3.4-2,0-.5,0-.9.4-1.2,1.2-1,3-.6,4.1-1.7,1.2-1.3,1.3-3.3,2.9-4.4.5-.2.9-.2,1.4,0,1,.6,1.3,1.4.5,2.4-1.8,4.2-.8,8.7-2.1,13h0Z"/>
        <path class="cls-48" d="M123,113c0-.8-.2-1.6-1-2-.5-.8.5-1.9-.5-2.7.5-2.9-2.2-5.6-.5-8.5,2.9,0,2.3,3.3,4,4.4-.7,2.9,2.2,6.7-2.1,8.8Z"/>
        <path class="cls-110" d="M125.1,104.2c-2.6-.2-1.8-3.7-4.1-4.1-.7-.2-1.1-.6-1.4-1.2-.2-.7-.2-1.3.3-1.8,2.9.3,3.4,3.3,5.1,4.9,0,.7,0,1.5,0,2.2h0Z"/>
        <path class="cls-55" d="M104,105.9c-.3-.3-.7-.7-1-1-.4-3.5-1-7.2,2.6-9.6,6.5-.9,8.4.1,9,4.9,0,.7-1,1.3-.3,2.1,1.8,2-.2,2.8-1.2,4-2.6,1.7-5.3,2.2-8.2.5-.4-.2-.7-.5-1-.9h0Z"/>
        <path class="cls-112" d="M106,96c-3.1,2.3-1.1,6.2-3,8.9-2.6-2-2.4-5.1-3-7.9,0-.6.1-1.3.2-1.9.6-.4,1.2-.8,1.8-1.3.7-.3,1.4-.6,2.2-.8,1.3-.2,2.6-.3,3.7.5,1.2,2.2-1.3,1.5-1.8,2.4h0Z"/>
        <path class="cls-46" d="M104,105.9c.2.1.5.2.8.2,1.1.5,2.9.4,2.7,2.4-.8,1.4-2.7,1.1-3.7,2.1-.8.3-1.7.3-2.5-.2-.5-.4-.9-.8-1.2-1.4-.4-.7-.9-1.3-1.2-2.1,1.4-1.7,3.4-.7,5.1-1h0Z"/>
        <path class="cls-28" d="M98.9,106.9c.8,0,1.7.2,2.1,1.1-.3.3-.6.6-.9.8-.7.4-1.4.8-2.2.3-.8-.5-.9-1.3-.9-2.2.6,0,1.3,0,1.9,0h0Z"/>
        <path class="cls-40" d="M98,114l-.9-1c.4-.4.6-1,1-1.4.4-.2.8-.2,1.2-.2.4,0,.7.3,1,.6.2.4.2.8,0,1.2-.3.6-.7,1-1.3,1.3-.4,0-.8,0-1.1-.4h0Z"/>
        <path class="cls-34" d="M99,118h-1c0-1,0-2,0-3.1.2-.1.4-.2.6-.4.2,0,.5.1.7.2.4.3.7.6.9,1,.3,1.2-.5,1.7-1.3,2.2h0Z"/>
        <path class="cls-36" d="M97.9,109.2c.7-.4,1.4-.7,2.1-1.1.7.5.5,1.1.3,1.8-.3.3-.7.5-1.1.6-.2,0-.4,0-.7-.1-.2-.2-.3-.3-.4-.5v-.7h-.1Z"/>
        <path class="cls-66" d="M98,112c-.3.3-.7.6-1,.9,0-.7,0-1.3,0-1.9.3-.3.7-.4,1.1-.1.2.4.2.8-.2,1.1h0Z"/>
        <path class="cls-28" d="M98,111h-.9c.3-.4.6-.8.9-1.2v.2c.3.2.3.4.3.7,0,.2-.2.3-.3.3h0Z"/>
        <path class="cls-96" d="M99,115h-1c0-.4,0-.7,0-1,.3,0,.7,0,1,0,.2.2.3.4.2.6,0,.2,0,.3-.2.3Z"/>
        <path class="cls-88" d="M104,130.9c-.3-.4-.6-.7-.9-1.1-.4-.6-.7-1.2-1.1-1.9,0-1,0-2,0-3,.4-.6.8-1.3,1.2-1.9,1-.7,1.7,0,2.5.5,1.1,1.4,2.7,2.2,4.3,2.9.3.3.5.7.6,1.1,0,1.1,1.1,1.6,1.6,2.4-.9,1.5-3,.4-3.9,1.7-.4.1-.7.2-1.1.4-1-.4-2-.8-3-1.2h0Z"/>
        <path class="cls-108" d="M100,121c-1.1-1.5.3-2.1,1-2.9.2-.7.6-1.1,1.3-1.3.5,0,.8.2,1.1.6.4,1.2-.2,2.2-1,3.1-.7.5-1.4,1.1-2.4.6Z"/>
        <path class="cls-25" d="M105,124c-.6-.3-1.3-.6-1.9-.8-.3-.4-.7-.8-1-1.1-.3-.2-.4-.5-.4-.8,0-.3.1-.4.2-.4,1.2-.8,2.3-.3,3.2.6.3.4.4.8.5,1.3,0,.5-.2.9-.6,1.2h0Z"/>
        <path class="cls-26" d="M102.1,121.3c0,.2,0,.5,0,.7-.8-.1-2.7,2-2.1-1,.7-.3,1.3-.6,2-.9.3.2.4.5.3.8,0,.3-.1.4-.2.4h0Z"/>
        <path class="cls-18" d="M102,117c-.3.4-.6.7-.9,1.1-.7,0-1.4,0-2.1,0,.3-.6.7-1.3,1.1-1.9.2-.3.6-.4.9-.4.3.2.6.4.8.7,0,.2,0,.4.1.6h0Z"/>
        <path class="cls-81" d="M103.7,93.9c-.6,0-1.2,0-1.7,0,1-.9,2-1.9,3-2.8,3,0,6,0,9,0,0,.3,0,.6,0,1-.7.9-1.7,1.1-2.8,1.3-2.5,0-5.1-.5-7.5.7h0Z"/>
        <path class="cls-62" d="M117,123c2.2,4.4,0,6.2-4,7-.8-1.8-.1-3.5.4-5.2.9-1.3,1.5-3,3.6-1.7Z"/>
        <path class="cls-17" d="M117,123c-1.6-.2-2,1.5-3.1,2.1-.3.3-.7.3-1.1,0-.2-.3-.4-.7-.4-1.1-.2-.8-.6-1.5-.9-2.2-.1-.4-.2-.8-.1-1.3.4-1.4,1.2-2.4,2.7-2.7,1,.7,2,1.4,3,2.1.5,1,.6,2,0,3h0Z"/>
        <path class="cls-70" d="M113,124.9c.3,0,.6,0,.9.1.2,1.7,0,3.4-1,4.9-.3,0-.6,0-.9,0-1.2-.2-2.7.5-3.4-.8-.5-1,.7-1.1,1.4-1.3,1.3-.7.8-2.4,1.9-3.2.4-.2.8-.2,1.2.2h0Z"/>
        <path class="cls-39" d="M111,136c-1.6-.6-4.9.9-4-3,2.1,0,3.9.4,4,3Z"/>
        <path class="cls-104" d="M103.7,93.9c2-2.2,4.7-1.4,7.1-1.8,1.9.9,4.5.2,6,2.2,1,.9,2,1.9,3,2.8,0,.6.2,1.2.3,1.9-4.2-1.2-8.1-3.3-12.1-4.9-1.4,0-2.8,0-4.3-.1h0Z"/>
        <path class="cls-110" d="M116.8,94.3c-2-.7-4-1.5-6-2.2,1.1,0,2.2,0,3.2-.1,1.4.2,2.6.6,2.8,2.3Z"/>
        <path class="cls-97" d="M121,111.2c-.6,1.7-.7,3.7-2.4,4.8-2,.7-4,.4-6,.4-1.8-1.5-1-2.5.7-3.2,1.2-.5,2.6-.6,3.5-1.6,1-.7,2-1.2,3.2-1.2.5,0,.8.4,1.1.8h0Z"/>
        <path class="cls-106" d="M114.1,117.9c-.7,1-1.4,2.1-2.1,3.1-.5.6-1.2.7-1.9.5-.7-.3-1.1-.8-1.4-1.5,0-.5,0-.9.3-1.3,1.1-.8,2.1-1.7,3.3-2.2.7,0,1.3,0,1.8.5,0,.3,0,.6,0,.8Z"/>
        <path class="cls-72" d="M114.1,117.1c-.7,0-1.3,0-1.9,0l-.4-.4c0-.2.1-.4.2-.5,2.2,0,4.4,0,6.6,0-1.2,1.6-3,.6-4.5,1h0Z"/>
        <path class="cls-49" d="M121,111.2c-.3-.1-.7-.3-1-.4-1-.5-1.5-1.1-.7-2.2.9-.5,1.8-.6,2.7.2,1.5.7,0,1.4,0,2.1-.3,0-.6.1-.9.3Z"/>
        <path class="cls-79" d="M122,108.8c-1,0-1.9,0-2.9,0-.2,0-.4-.2-.6-.2-.4-.2-.7-.4-1-.7-1.1-.8-2.4-.7-3.6-1.2-.4-.2-.7-.5-.9-.9-.9-.9,2.9-1.8,0-2.8-.6-1.1.4-1.4,1-2-.2-5.6-4.3-4.9-8-5,.7-.7,1.3-1.3,2-2,4.4.8,8.9,1.3,12.1,4.9.3.4.6.7.9,1.1.2,2.9,3.2,5.6,1,8.8h0Z"/>
        <path class="cls-33" d="M107.3,108.8c-.3-1.4-1.7-1.7-2.4-2.7,2.8.6,5.5.9,8.2-.3v.4c.3.4.4.8.3,1.2-.2.6-.6,1.2-1,1.7-.5.5-1.1.7-1.8.9-1.2,0-2.4,0-3.1-1.1Z"/>
        <path class="cls-74" d="M114,101c-.3.7-.7,1.3-1,2-.7-.2-1.8-.1-1.4-1.2.4-1.1,1.6-.7,2.4-.8Z"/>
        <path class="cls-16" d="M107.3,108.8c1.2,0,2.5.1,3.7.2.7.6,1.3,1.2,1.4,2.1-.1,1.2-.8,1.9-2,2.2-.8,0-1.7,0-2.5,0-1.1-.1-1.8-.9-2.5-1.6-.6-.5-1.2-1.1-1.3-1.9.2-2.9,2-1,3.2-1.1h0Z"/>
        <path class="cls-5" d="M104.1,109.9c.6.4,1.3.8,1.9,1.3.3,1-.2,1.7-.9,2.3-1,.5-2.1.8-3.2,1.1-.7.1-1.4,0-2-.4-.3-.4-.3-.8,0-1.2,0-.4,0-.7,0-1.1-.3-.2-.4-.6-.3-1,.2-.3.5-.6.8-.8.2,0,.4-.1.6-.2,1,0,2,0,3-.1h0Z"/>
        <path class="cls-67" d="M100,109.9c0-.6,0-1.2,0-1.8.3,0,.7,0,1.1,0,0,.7,0,1.3,0,2h0c-.2,0-.4.2-.6.4-.2-.2-.3-.3-.5-.5Z"/>
        <path class="cls-68" d="M100,111c0,.3,0,.6,0,.9-.3,0-.7,0-1,0-.6-.7-.6-1.3,0-2,.3,0,.7,0,1,0v.2c.3.2.4.4.3.7,0,.2-.2.3-.2.3h0Z"/>
        <path class="cls-77" d="M100,113c0,.3,0,.7,0,1,.2.2.3.5.3.7,0,.3-.1.4-.2.4-.4.2-.8.1-1.2-.2h0c0-.3,0-.6,0-.9.3-.3.7-.7,1-1Z"/>
        <path class="cls-98" d="M99,110v2c-.3,0-.7,0-1,0,0-.3,0-.7,0-1,0-.3,0-.7,0-1h1Z"/>
        <path class="cls-91" d="M99,114.9c.4,0,.7,0,1.1,0,.3-.3.7-.3,1.1,0,.2.4,0,.8-.2,1.1-.3,0-.6,0-.9.2-.4-.4-.7-.8-1.1-1.1Z"/>
        <path class="cls-87" d="M113,124.9c-.3,0-.7,0-1.1,0-.9.4,0,2.6-2,2-2.5.4-4.3-.5-5-3,0-.3,0-.6.2-.8.7-.6,1.5-.2,2.2,0,.9.3,1.8.4,2.8.2.4,0,.8,0,1.2,0,.6,0,1.2.3,1.5.9,0,.3,0,.6,0,.8h0Z"/>
        <path class="cls-63" d="M110,127c.7-.7,1.3-1.3,2-2-.3,1.3.7,3.4-2,2.9,0-.3,0-.6,0-.9h0Z"/>
        <path class="cls-44" d="M108.9,119.8c.4.4.7.8,1.1,1.2-1.1,3.3-3.2,1.7-5.1,1-.9-.4-1.7-1.1-2.8-.8,0-.4,0-.8-.1-1.2.3-1,.7-2,1-3,.5-.6,1.2-.6,1.9-.4.4.2.7.5,1,.9.7,1.2,2.1,1.5,3.1,2.4h0Z"/>
        <path class="cls-92" d="M105,117c-.7,0-1.4,0-2,0-.3,0-.7,0-1,0h0c-.5-.5-.5-1.1-.4-1.8.2-.4,1.4-.6.3-1.3.8-1.1,2-.8,3.1-1.1.9-.2,1.3.3,1.6,1,0,1.3-.4,2.4-1.5,3.1h0Z"/>
        <path class="cls-4" d="M105,122c1.7-.3,3.7.7,5.1-1h1.9c0,.3,0,.7,0,1.1.6,1.1-.3,1.4-.9,1.9-.4,0-.7,0-1.1.1-1,.1-2-.8-3-.2-.6-.2-1.2-.5-1.8-.8,0-.4-.1-.7-.2-1.1h0Z"/>
        <path class="cls-34" d="M102,115v2c-.3-.4-.7-.7-1-1.1,0-.3,0-.5,0-.8.3-.4.7-.5,1.1-.1Z"/>
        <path class="cls-116" d="M111.1,123.9c.3-.6.6-1.2.9-1.9,1.5.1,2.6.4.9,2-.6,0-1.2-.1-1.9-.2Z"/>
        <path class="cls-118" d="M110.1,112.9c.9-.4,1.6-1,1.8-2,1.8-1.4,3.5-.9,5.3,0,.2.5.2.9-.2,1.3.8,1.8-.3,1.8-1.6,1.8-1.6,0-3.3-.3-3.5,2h0c-2.3,0-3-1-1.9-3.1h0Z"/>
        <path class="cls-89" d="M117.1,112.2c0-.4,0-.8,0-1.2-.3-.9-2.4-1.6-.3-2.7.9-.3,1.7,0,2.4.6h0c.3.5.6,1.2,1,1.9-1,.4-2,.9-3,1.3Z"/>
        <path class="cls-35" d="M110.1,112.9c-.1,1.5.4,2.6,1.9,3.1,0,.3,0,.7.2,1-.1,2.1-1.8,1.8-3.2,2-1.4,0-2.9.3-4-.9,0-.3,0-.7,0-1,.3-.8.7-1.7,1-2.5,0-1.1,1.4-1,1.8-1.7.8-1,1.5-.8,2.3,0h0Z"/>
        <path class="cls-102" d="M105,118c1.4,0,2.9-.2,4,.9,0,.3,0,.6,0,.9-1.5-.1-3.6.9-3.9-1.8Z"/>
        <path class="cls-15" d="M119.1,108.9c-1,0-2.1,0-3.1,0-2.1,2.5-3,.7-3.9-1-.1-.7.3-.9.9-1.1,2.2-1,4.1,0,5.8,1.2.2.2.3.5.3.8h0Z"/>
        <path class="cls-89" d="M118.8,108.1c-1.9-.4-3.9-.8-5.8-1.2,0-.2.1-.5.2-.7,2.1,0,4.6-1.2,5.7,1.9Z"/>
        <path class="cls-43" d="M112,108c1.3.6,2.2,2.2,3.9,1-.1.9,2.1.6,1,2-1.7,1.1-3.4-.4-5.1,0-.8-.4-.9-1.1-.9-1.9.3-.3.7-.7,1-1h0Z"/>
        <path class="cls-93" d="M107.9,112.8c-.2,1-1,1.4-1.8,1.7-.3-.6-.7-1.1-1-1.6.3-.6.7-1.1,1-1.7.6.6,1.2,1.1,1.9,1.7h0Z"/>
        <path class="cls-9" d="M102,115c-.4,0-.8,0-1.1.1-.3,0-.6-.1-.8-.2,0-.3,0-.6,0-.8.6,0,1.2,0,1.9-.1.4.2.9.4,1.3.7-.4.1-.8.3-1.2.4h0Z"/>
        <path class="cls-19" d="M100,111c0-.3,0-.6,0-1,.3,0,.7,0,1,0-.3.3-.7.7-1,1h0Z"/>
        <path class="cls-32" d="M107,123.9c1.1-1.1,2.1-1.2,3,.2-1.1,1.6-2,.2-3-.2Z"/>
      </g>
    </g>
  </g>
</svg>